<svg width="800" height="600" xmlns="http://www.w3.org/2000/svg">
 <!-- Created with Method Draw - http://github.com/duopixel/Method-Draw/ -->

 <g>
  <title>background</title>
  <rect x="-1" y="-1" width="802" height="602" id="canvas_background" fill="none"/>
  <g id="canvasGrid" display="none">
   <rect id="svg_1" width="100%" height="100%" x="0" y="0" stroke-width="0" fill="url(#gridpattern)"/>
  </g>
 </g>
 <g>
  <title>Layer 1</title>
  <path fill="#aaa" stroke="#000" stroke-width="1.5" stroke-linejoin="null" stroke-linecap="null" stroke-opacity="null" d="m228,505.45313c0,-13.81215 65.78453,-25 147,-25c81.21547,0 147,11.18785 147,25c0,13.81215 -65.78453,25 -147,25c-81.21547,0 -147,-11.18785 -147,-25z" id="svg_7"/>
  <ellipse fill="#7DD8B5" stroke-width="1.5" stroke-opacity="null" fill-opacity="null" cx="641" cy="504.45313" id="svg_9" rx="147" ry="25" stroke="#000"/>
  <path fill="#aaa" stroke="#000" stroke-width="1.5" stroke-linejoin="null" stroke-linecap="null" stroke-opacity="null" d="m494,504.45313c0,-13.81216 65.78453,-25 147,-25c81.21547,0 147,11.18784 147,25c0,13.81215 -65.78453,25 -147,25c-81.21547,0 -147,-11.18785 -147,-25z" id="svg_10"/>
  <path fill="#aaa" stroke="#000" stroke-width="1.5" stroke-linejoin="null" stroke-linecap="null" stroke-opacity="null" d="m47,377.45313c0,-13.81215 65.78453,-25 147,-25c81.21547,0 147,11.18785 147,25c0,13.81215 -65.78453,25 -147,25c-81.21547,0 -147,-11.18785 -147,-25z" id="svg_11"/>
  <path fill="#fcfcd4" stroke="#000" stroke-width="2" stroke-linejoin="null" stroke-linecap="null" stroke-opacity="null" d="m60,253.45313c0,-67.40332 54.59669,-122 122,-122c67.40331,0 122,54.59668 122,122c0,67.40331 -54.59669,122 -122,122c-67.40331,0 -122,-54.59669 -122,-122z" id="svg_6"/>
  <path fill="#fff600" stroke="#000" stroke-width="2" stroke-linejoin="null" stroke-linecap="null" stroke-opacity="null" transform="rotate(0.5617053508758545 370.99999999998846,370.4531249999983) " d="m249,370.45313c0,-67.40331 54.59669,-122 122,-122c67.40331,0 122,54.59669 122,122c0,67.40331 -54.59669,122 -122,122c-67.40331,0 -122,-54.59669 -122,-122z" id="svg_3"/>
  <path fill="#ff0000" stroke-width="0.5" stroke-linejoin="null" stroke-linecap="null" stroke-opacity="null" d="m520,381.45313c0,-67.40332 54.59669,-122 122,-122c67.40331,0 122,54.59668 122,122c0,67.40331 -54.59669,122 -122,122c-67.40331,0 -122,-54.59669 -122,-122z" id="svg_5" stroke="#000"/>
  <ellipse fill="#d4ebf9" stroke-width="2" stroke-opacity="null" cx="77.65346" cy="169.16024" id="svg_21" rx="9.45511" ry="15.38204" transform="rotate(32.755470275878906 77.65345764160156,169.16024780273438) " stroke="#000"/>
  <rect fill="#f7f1cd" stroke-width="1.5" stroke-opacity="null" x="-53.80169" y="108.45048" width="144" height="32.80038" id="svg_20" transform="rotate(36.92392349243164 18.19831085205079,124.85067749023438) " stroke="#000"/>
 </g>
</svg>
