<?xml version="1.0" encoding="UTF-8" standalone="no"?>
<svg
   version="1.0"
   width="1280.000000pt"
   height="1226.000000pt"
   viewBox="0 0 1280.000000 1226.000000"
   preserveAspectRatio="xMidYMid meet"
   id="svg84"
   sodipodi:docname="undo-gray-500t.svg"
   inkscape:version="1.1 (c4e8f9e, 2021-05-24)"
   xmlns:inkscape="http://www.inkscape.org/namespaces/inkscape"
   xmlns:sodipodi="http://sodipodi.sourceforge.net/DTD/sodipodi-0.dtd"
   xmlns="http://www.w3.org/2000/svg"
   xmlns:svg="http://www.w3.org/2000/svg">
  <defs
     id="defs88">
    <rect
       x="285.87175"
       y="1179.8707"
       width="111.74987"
       height="103.95336"
       id="rect4711" />
  </defs>
  <sodipodi:namedview
     id="namedview86"
     pagecolor="#ffffff"
     bordercolor="#666666"
     borderopacity="1.0"
     inkscape:pageshadow="2"
     inkscape:pageopacity="0.0"
     inkscape:pagecheckerboard="0"
     inkscape:document-units="pt"
     showgrid="false"
     inkscape:zoom="0.5"
     inkscape:cx="853"
     inkscape:cy="897"
     inkscape:window-width="1335"
     inkscape:window-height="855"
     inkscape:window-x="177"
     inkscape:window-y="38"
     inkscape:window-maximized="0"
     inkscape:current-layer="svg84"
     showguides="false">
    <sodipodi:guide
       position="670.01514,768.99548"
       orientation="0,-1"
       id="guide24281" />
  </sodipodi:namedview>
  <metadata
     id="metadata74">
Created by potrace 1.15, written by Peter Selinger 2001-2017
</metadata>
  <path
     style="fill:#6b7280;fill-opacity:1;stroke-width:1.94912"
     d="m 814.73452,1048.0168 c 25.87635,-14.8288 35.36925,-20.812 50.57835,-31.8789 10.76572,-7.8336 13.09567,-10.775 5.33085,-6.7297 -1.80555,0.9406 -12.7491,2.1474 -24.31898,2.6816 -20.50155,0.9467 -20.95177,0.8782 -17.7165,-2.6968 1.8258,-2.0175 2.84025,-4.1475 2.25435,-4.7334 -0.5859,-0.5859 -2.71072,0.9545 -4.72177,3.423 -4.96995,6.1003 -29.40735,25.7936 -48.6954,39.2421 -14.41245,10.049 -16.78448,11.0505 -26.17305,11.0505 h -10.32421 l 14.47823,-9.9693 c 16.45815,-11.3327 46.63875,-34.6146 46.63875,-35.9781 0,-0.4983 -2.1294,-0.3714 -4.73212,0.2818 -2.60265,0.6532 -6.4743,0.6347 -8.60363,-0.041 -3.31245,-1.0513 -0.84795,-4.243 17.0676,-22.10365 41.0175,-40.89188 62.30753,-76.59705 75.6888,-126.93638 4.36493,-16.42072 4.96688,-22.57612 4.97175,-50.8431 0.007,-28.85205 -0.53632,-34.1658 -5.26267,-51.6519 -25.00898,-92.52642 -105.12383,-159.84169 -208.74655,-175.39614 -16.50568,-2.47761 -48.69689,-4.0578 -50.14463,-2.46147 -0.24305,0.268 -0.90088,63.10639 -1.46184,139.64087 l -1.01992,139.15354 -38.00795,-34.90635 C 560.90961,807.9654 484.60135,737.86845 412.24006,671.39293 339.87877,604.9174 247.78258,520.3466 207.58186,483.4578 167.38112,446.569 134.25592,415.84939 133.97032,415.19201 133.36092,413.7895 177.07792,374.83924 306.98728,261.04021 358.9802,215.49505 447.28145,138.12889 503.21227,89.11542 601.64977,2.8523492 605.15856,0 612.83668,0 h 7.93198 l 0.5012,129.12957 0.5012,129.12957 23.37598,1.37082 c 165.8569,9.72613 311.12155,103.20706 382.53306,246.16813 84.4262,169.01531 48.0831,360.10368 -92.73266,487.58028 -19.93815,18.04943 -20.21737,18.21783 -30.2115,18.22083 -9.3726,0 -11.7444,1.1135 -33.47677,15.6756 -12.86423,8.6199 -30.49538,19.5824 -39.18023,24.361 -13.67872,7.5264 -17.32845,8.6871 -27.28777,8.6781 l -11.49705,-0.01 21.4404,-12.2868 z"
     id="path2356" />
  <text
     xml:space="preserve"
     transform="scale(0.75)"
     id="text4709"
     style="fill:black;fill-opacity:1;line-height:1.25;stroke:none;font-family:sans-serif;font-style:normal;font-weight:normal;font-size:40px;white-space:pre;shape-inside:url(#rect4711)" />
  <text
     xml:space="preserve"
     style="font-style:normal;font-variant:normal;font-weight:normal;font-stretch:normal;font-size:160px;line-height:1.25;font-family:sans-serif;-inkscape-font-specification:'sans-serif, Normal';font-variant-ligatures:normal;font-variant-caps:normal;font-variant-numeric:normal;font-variant-east-asian:normal;white-space:pre;fill:#6b7280;fill-opacity:1;stroke:none;stroke-width:3.86936"
     x="139.73407"
     y="969.21558"
     id="text6807"
     transform="scale(0.94975221,1.0529062)"><tspan
       id="tspan6805"
       style="font-style:normal;font-variant:normal;font-weight:bold;font-stretch:normal;font-size:160px;font-family:sans-serif;-inkscape-font-specification:'sans-serif, Bold';font-variant-ligatures:normal;font-variant-caps:normal;font-variant-numeric:normal;font-variant-east-asian:normal;stroke-width:3.86936;fill:#6b7280;fill-opacity:1"
       x="139.73407"
       y="969.21558">UNDO</tspan></text>
</svg>
