<?xml version="1.0" encoding="UTF-8" standalone="no"?>
<svg
   version="1.0"
   width="1280.000000pt"
   height="1226.000000pt"
   viewBox="0 0 1280.000000 1226.000000"
   preserveAspectRatio="xMidYMid meet"
   id="svg84"
   sodipodi:docname="undo-red-400.svg"
   inkscape:version="1.1 (c4e8f9e, 2021-05-24)"
   xmlns:inkscape="http://www.inkscape.org/namespaces/inkscape"
   xmlns:sodipodi="http://sodipodi.sourceforge.net/DTD/sodipodi-0.dtd"
   xmlns="http://www.w3.org/2000/svg"
   xmlns:svg="http://www.w3.org/2000/svg">
  <defs
     id="defs88" />
  <sodipodi:namedview
     id="namedview86"
     pagecolor="#ffffff"
     bordercolor="#666666"
     borderopacity="1.0"
     inkscape:pageshadow="2"
     inkscape:pageopacity="0.0"
     inkscape:pagecheckerboard="0"
     inkscape:document-units="pt"
     showgrid="false"
     inkscape:zoom="0.38478793"
     inkscape:cx="-15.593005"
     inkscape:cy="777.0514"
     inkscape:window-width="1290"
     inkscape:window-height="916"
     inkscape:window-x="247"
     inkscape:window-y="1188"
     inkscape:window-maximized="0"
     inkscape:current-layer="svg84" />
  <metadata
     id="metadata74">
Created by potrace 1.15, written by Peter Selinger 2001-2017
</metadata>
  <g
     transform="translate(0.000000,1226.000000) scale(0.100000,-0.100000)"
     fill="currentColor"
     stroke="none"
     id="g82"
     style="fill:currentColor;fill-opacity:1">
    <path
       d="M5485 11778 c-302 -265 -802 -703 -1110 -973 -308 -270 -1124 -985 -1814 -1589 -1005 -881 -1251 -1101 -1239 -1110 8 -6 900 -825 1983 -1821 1083 -995 2181 -2005 2440 -2242 258 -238 472 -433 475 -433 3 0 4 633 2 1407 -1 774 1 1410 5 1414 11 11 327 -8 458 -27 848 -122 1536 -568 1913 -1239 120 -214 200 -444 248 -710 25 -143 26 -497 1 -650 -71 -430 -267 -850 -561 -1200 -142 -169 -315 -338 -493 -482 -103 -83 -123 -106 -38 -43 63 46 90 54 160 42 46 -8 53 -6 90 21 29 21 23 13 -20 -28 -96 -89 -277 -228 -451 -343 -88 -59 -169 -113 -180 -120 -17 -11 -17 -11 3 -2 12 5 68 10 125 10 l103 0 -25 -21 c-48 -39 14 -2 159 95 145 98 332 242 435 336 l58 54 230 3 c224 2 230 3 261 26 38 28 67 45 52 30 -21 -21 -167 -125 -276 -196 -159 -102 -313 -193 -473 -277 -131 -69 -166 -91 -108 -69 15 6 79 12 143 12 98 2 114 0 100 -11 -26 -22 189 92 300 158 146 88 304 193 444 295 66 48 109 75 95 61 l-25 -27 95 2 95 1 85 72 c120 101 376 353 485 476 572 652 899 1382 1002 2240 21 176 23 624 4 800 -35 321 -94 605 -183 880 -254 784 -726 1480 -1373 2021 -758 635 -1753 1013 -2780 1057 l-160 7 -3 1288 -2 1287 -93 0 -92 0 -550 -482z m2825 -9571 c0 -2 -19 -21 -42 -42 l-43 -40 40 43 c36 39 45 47 45 39z m730 -1 c0 -2 -8 -10 -17 -17 -16 -13 -17 -12 -4 4 13 16 21 21 21 13z"
       id="path76"
       style="fill:currentColor;fill-opacity:1" />
    <path
       d="M9068 2084 c-32 -25 -58 -48 -58 -50 0 -3 27 16 60 41 52 40 68 55 58 55 -2 0 -29 -21 -60 -46z"
       id="path78"
       style="fill:currentColor;fill-opacity:1" />
    <path
       d="M7669 2023 c-13 -16 -12 -17 4 -4 16 13 21 21 13 21 -2 0 -10 -8 -17 -17z"
       id="path80"
       style="fill:currentColor;fill-opacity:1" />
  </g>
  <path
     style="fill:currentColor;fill-opacity:1;stroke-width:2.59883"
     d="m 1090.3941,1395.2652 c 36.7734,-21.0613 77.7818,-48.4832 77.7818,-52.0119 0,-1.3061 -2.6313,-0.7014 -5.8473,1.3437 -3.8285,2.4346 -15.4486,4.0466 -33.6547,4.6687 -25.3745,0.8672 -27.4777,0.586 -24.0392,-3.2134 6.8499,-7.5691 3.9047,-9.0957 -3.3816,-1.7528 -11.1806,11.2673 -46.4011,39.5215 -67.1227,53.8463 -16.783,11.6021 -20.3294,13.0211 -32.5421,13.0211 h -13.70637 l 23.22707,-15.8403 c 27.2822,-18.6058 58.3112,-43.5353 58.3112,-46.8486 0,-1.2793 -2.1624,-0.9755 -4.8054,0.6751 -2.7531,1.7193 -7.8433,2.2385 -11.9185,1.2157 -6.9905,-1.7545 -6.705,-2.1696 16.5504,-24.0612 69.573,-65.4931 108.951,-143.7131 113.5894,-225.6323 8.4922,-149.98516 -99.7164,-280.35167 -261.86051,-315.48151 -31.28817,-6.77886 -85.46154,-11.36842 -89.97488,-7.62267 -2.51695,2.08886 -3.38603,43.7666 -3.90452,187.24426 l -0.66694,184.55732 -51.97668,-47.8338 C 745.86539,1075.2303 606.69783,947.42232 465.19131,817.52123 323.68479,687.62012 201.02533,574.85312 192.61473,566.92789 l -15.29201,-14.40949 9.16318,-7.92959 c 5.03975,-4.36126 38.23434,-33.70228 73.76577,-65.20223 C 295.7831,447.88661 432.93385,327.43065 565.03111,211.70666 796.77094,8.6906591 805.60285,1.2716186 816.4497,0.50807493 l 11.24178,-0.79134229 0.66829,172.31439736 0.66832,172.31439 31.16797,1.82776 c 94.37596,5.53438 190.67674,33.32568 270.29674,78.00455 246.2191,138.16616 360.3866,428.83162 267.2185,680.32667 -31.0604,83.8435 -83.1021,158.4294 -157.7152,226.0365 -20.2435,18.3426 -20.5659,18.513 -33.7849,17.8475 -12.7065,-0.6396 -14.572,0.1812 -38.9145,17.1194 -14.0625,9.7852 -37.4333,24.6462 -51.9351,33.0245 -24.0832,13.914 -27.7052,15.2334 -41.8183,15.2334 h -15.4515 z m 115.4649,-54.2668 c 0.8834,-1.4293 0.3677,-2.5988 -1.146,-2.5988 -1.5137,0 -2.7522,1.1695 -2.7522,2.5988 0,1.4294 0.5157,2.5988 1.146,2.5988 0.6303,0 1.8688,-1.1694 2.7522,-2.5988 z"
     id="path1076"
     transform="scale(0.75)" />
  <path
     style="fill:currentColor;fill-opacity:1;stroke-width:2.59883"
     d="m 1086.3127,1397.3557 c 34.5018,-19.7717 47.159,-27.7493 67.4378,-42.5051 14.3543,-10.4448 17.4609,-14.3667 7.1078,-8.973 -2.4074,1.2542 -16.9988,2.8632 -32.4253,3.5755 -27.3354,1.2623 -27.9357,1.1709 -23.622,-3.5957 2.4344,-2.69 3.787,-5.53 3.0058,-6.3112 -0.7812,-0.7812 -3.6143,1.2726 -6.2957,4.5639 -6.6266,8.1338 -39.2098,34.3915 -64.9272,52.3229 -19.2166,13.3986 -22.3793,14.7339 -34.8974,14.7339 h -13.76561 l 19.30431,-13.2924 c 21.9442,-15.1102 62.185,-46.1528 62.185,-47.9707 0,-0.6644 -2.8392,-0.4953 -6.3095,0.3757 -3.4702,0.8709 -8.6324,0.8463 -11.4715,-0.055 -4.4166,-1.4017 -1.1306,-5.6573 22.7568,-29.4715 54.69,-54.5225 83.0767,-102.1294 100.9184,-169.2485 5.8199,-21.8943 6.6225,-30.1015 6.629,-67.7908 0.01,-38.4694 -0.7151,-45.5544 -7.0169,-68.8692 -33.3453,-123.36856 -140.1651,-213.12226 -278.32873,-233.86152 -22.00757,-3.30349 -64.92919,-5.41041 -66.8595,-3.28197 -0.32407,0.35734 -1.20118,84.14186 -1.94913,186.18783 l -1.35989,185.53806 -50.67726,-46.5418 C 747.87949,1077.2872 646.13514,983.8246 549.65342,895.19058 453.1717,806.55654 330.37679,693.79547 276.77583,644.6104 223.17488,595.42533 179.00795,554.46586 178.62709,553.58935 177.81453,551.71934 236.10385,499.78566 409.31638,348.05362 478.64028,287.32674 596.37528,184.17186 670.94971,118.82056 802.1997,3.8031323 806.87809,0 817.11558,0 h 10.57598 l 0.66826,172.17276 0.66827,172.17276 31.16797,1.82776 c 221.14254,12.96818 414.82874,137.60941 510.04414,328.22418 112.5682,225.35374 64.1108,480.13824 -123.6436,650.10704 -26.5842,24.0659 -26.9565,24.2904 -40.282,24.2945 -12.4968,0 -15.6592,1.4846 -44.6357,20.9008 -17.1523,11.4932 -40.6605,26.1098 -52.2403,32.4813 -18.2383,10.0352 -23.1046,11.5828 -36.3837,11.5708 l -15.3294,-0.013 28.5872,-16.3823 z"
     id="path2356"
     transform="scale(0.75)" />
</svg>
