<?xml version="1.0" encoding="UTF-8" standalone="no"?>
<!DOCTYPE svg PUBLIC "-//W3C//DTD SVG 1.1//EN"
 "http://www.w3.org/Graphics/SVG/1.1/DTD/svg11.dtd">
<!-- Generated by graphviz version 3.0.0 (20220226.1711)
 -->
<!-- Title: models_diagram Pages: 1 -->
<svg width="3661pt" height="695pt"
 viewBox="0.00 0.00 3661.00 695.00" xmlns="http://www.w3.org/2000/svg" xmlns:xlink="http://www.w3.org/1999/xlink">
<g id="graph0" class="graph" transform="scale(1 1) rotate(0) translate(4 691)">
<title>models_diagram</title>
<polygon fill="transparent" stroke="transparent" points="-4,4 -4,-691 3657,-691 3657,4 -4,4"/>
<!-- _diagram_info -->
<g id="node1" class="node">
<title>_diagram_info</title>
<text text-anchor="start" x="8" y="-672.6" font-family="Times,serif" font-size="13.00">Models diagram</text>
<text text-anchor="start" x="8" y="-658.6" font-family="Times,serif" font-size="13.00">Date: Apr 18 2022 &#45; 11:18</text>
<text text-anchor="start" x="8" y="-644.6" font-family="Times,serif" font-size="13.00">Migration version: 20220417152646</text>
<text text-anchor="start" x="8" y="-630.6" font-family="Times,serif" font-size="13.00">Generated by RailRoady 1.6.0</text>
<text text-anchor="start" x="8" y="-616.6" font-family="Times,serif" font-size="13.00">http://railroady.prestonlee.com</text>
</g>
<!-- Announcement -->
<g id="node2" class="node">
<title>Announcement</title>
<ellipse fill="none" stroke="black" cx="297" cy="-648" rx="64.99" ry="18"/>
<text text-anchor="middle" x="297" y="-644.3" font-family="Times,serif" font-size="14.00">Announcement</text>
</g>
<!-- ActionText::RichText -->
<g id="node46" class="node">
<title>ActionText::RichText</title>
<ellipse fill="none" stroke="black" cx="297" cy="-540" rx="87.18" ry="18"/>
<text text-anchor="middle" x="297" y="-536.3" font-family="Times,serif" font-size="14.00">ActionText::RichText</text>
</g>
<!-- Announcement&#45;&gt;ActionText::RichText -->
<g id="edge1" class="edge">
<title>Announcement&#45;&gt;ActionText::RichText</title>
<path fill="none" stroke="#fb0a50" d="M297,-619.93C297,-604.19 297,-584.39 297,-568.57"/>
<polygon fill="#fb0a50" stroke="#fb0a50" points="297,-619.97 292.5,-629.97 297,-624.97 297,-629.97 297,-629.97 297,-629.97 297,-624.97 301.5,-629.97 297,-619.97 297,-619.97"/>
<polygon fill="#fb0a50" stroke="#fb0a50" points="297,-568.34 301.5,-558.34 297,-563.34 297,-558.34 297,-558.34 297,-558.34 297,-563.34 292.5,-558.34 297,-568.34 297,-568.34"/>
<text text-anchor="middle" x="354.5" y="-579.8" font-family="Times,serif" font-size="14.00">rich_text_description</text>
</g>
<!-- Tournament -->
<g id="node3" class="node">
<title>Tournament</title>
<ellipse fill="none" stroke="black" cx="1154" cy="-648" rx="53.89" ry="18"/>
<text text-anchor="middle" x="1154" y="-644.3" font-family="Times,serif" font-size="14.00">Tournament</text>
</g>
<!-- Party -->
<g id="node8" class="node">
<title>Party</title>
<ellipse fill="none" stroke="black" cx="1183" cy="-540" rx="29.5" ry="18"/>
<text text-anchor="middle" x="1183" y="-536.3" font-family="Times,serif" font-size="14.00">Party</text>
</g>
<!-- Tournament&#45;&gt;Party -->
<g id="edge18" class="edge">
<title>Tournament&#45;&gt;Party</title>
<path fill="none" stroke="#35400b" d="M1161.35,-620.14C1165.73,-604.11 1171.28,-583.83 1175.66,-567.81"/>
<polygon fill="#35400b" stroke="#35400b" points="1161.3,-620.32 1154.32,-628.78 1159.98,-625.15 1158.66,-629.97 1158.66,-629.97 1158.66,-629.97 1159.98,-625.15 1163,-631.16 1161.3,-620.32 1161.3,-620.32"/>
<polygon fill="#35400b" stroke="#35400b" points="1175.71,-567.63 1182.69,-559.18 1177.03,-562.81 1178.35,-557.99 1178.35,-557.99 1178.35,-557.99 1177.03,-562.81 1174.01,-556.8 1175.71,-567.63 1175.71,-567.63"/>
</g>
<!-- TournamentMonitor -->
<g id="node13" class="node">
<title>TournamentMonitor</title>
<ellipse fill="none" stroke="black" cx="2788" cy="-453" rx="83.39" ry="18"/>
<text text-anchor="middle" x="2788" y="-449.3" font-family="Times,serif" font-size="14.00">TournamentMonitor</text>
</g>
<!-- Tournament&#45;&gt;TournamentMonitor -->
<g id="edge12" class="edge">
<title>Tournament&#45;&gt;TournamentMonitor</title>
<path fill="none" stroke="#189276" d="M1214.03,-640.07C1294.63,-631.1 1442.39,-615.8 1569,-609 1600.13,-607.33 2663.43,-605.54 2691,-591 2735.62,-567.47 2764.25,-513.12 2778.11,-480.39"/>
<polygon fill="#189276" stroke="#189276" points="1214,-640.08 1203.56,-636.72 1209.03,-640.63 1204.06,-641.19 1204.06,-641.19 1204.06,-641.19 1209.03,-640.63 1204.56,-645.66 1214,-640.08 1214,-640.08"/>
<polygon fill="#189276" stroke="#189276" points="2778.17,-480.25 2786.11,-472.69 2780.05,-475.62 2781.94,-470.99 2781.94,-470.99 2781.94,-470.99 2780.05,-475.62 2777.77,-469.29 2778.17,-480.25 2778.17,-480.25"/>
</g>
<!-- Season -->
<g id="node14" class="node">
<title>Season</title>
<ellipse fill="none" stroke="black" cx="947" cy="-279" rx="36" ry="18"/>
<text text-anchor="middle" x="947" y="-275.3" font-family="Times,serif" font-size="14.00">Season</text>
</g>
<!-- Tournament&#45;&gt;Season -->
<g id="edge5" class="edge">
<title>Tournament&#45;&gt;Season</title>
<path fill="none" stroke="#e27501" d="M1089.73,-647.51C1021.12,-645.52 911.1,-634.84 828,-591 809.93,-581.47 803.67,-576.93 796,-558 787.41,-536.81 790.3,-461.88 802,-435 827.28,-376.91 884.01,-326.93 918.54,-300.37"/>
<polygon fill="#e27501" stroke="#e27501" points="1089.96,-647.52 1099.85,-652.25 1094.96,-647.64 1099.95,-647.76 1099.95,-647.76 1099.95,-647.76 1094.96,-647.64 1100.06,-643.26 1089.96,-647.52 1089.96,-647.52"/>
<polygon fill="#e27501" stroke="#e27501" points="918.82,-300.16 929.52,-297.73 922.81,-297.15 926.81,-294.14 926.81,-294.14 926.81,-294.14 922.81,-297.15 924.09,-290.54 918.82,-300.16 918.82,-300.16"/>
</g>
<!-- PartyTournament -->
<g id="node15" class="node">
<title>PartyTournament</title>
<ellipse fill="none" stroke="black" cx="1011" cy="-453" rx="72.29" ry="18"/>
<text text-anchor="middle" x="1011" y="-449.3" font-family="Times,serif" font-size="14.00">PartyTournament</text>
</g>
<!-- Tournament&#45;&gt;PartyTournament -->
<g id="edge17" class="edge">
<title>Tournament&#45;&gt;PartyTournament</title>
<path fill="none" stroke="#c2f623" d="M1150.26,-619.63C1144.82,-590.83 1131.89,-546.36 1102,-522 1069.37,-495.4 1035.79,-536.47 1009,-504 1003.79,-497.69 1002.69,-489.25 1003.37,-481.1"/>
<polygon fill="#c2f623" stroke="#c2f623" points="1150.32,-619.97 1147.56,-630.58 1151.16,-624.9 1152,-629.83 1152,-629.83 1152,-629.83 1151.16,-624.9 1156.43,-629.07 1150.32,-619.97 1150.32,-619.97"/>
<polygon fill="#c2f623" stroke="#c2f623" points="1003.39,-480.99 1009.46,-471.86 1004.21,-476.06 1005.02,-471.13 1005.02,-471.13 1005.02,-471.13 1004.21,-476.06 1000.58,-470.39 1003.39,-480.99 1003.39,-480.99"/>
</g>
<!-- Location -->
<g id="node16" class="node">
<title>Location</title>
<ellipse fill="none" stroke="black" cx="697" cy="-192" rx="42.49" ry="18"/>
<text text-anchor="middle" x="697" y="-188.3" font-family="Times,serif" font-size="14.00">Location</text>
</g>
<!-- Tournament&#45;&gt;Location -->
<g id="edge15" class="edge">
<title>Tournament&#45;&gt;Location</title>
<path fill="none" stroke="#9c64d3" d="M1090.9,-643.31C927.45,-632.9 503,-600.18 503,-541 503,-541 503,-541 503,-278 503,-215.91 587.41,-198.75 644.87,-194.26"/>
<polygon fill="#9c64d3" stroke="#9c64d3" points="1091.3,-643.33 1100.99,-648.45 1096.29,-643.65 1101.28,-643.96 1101.28,-643.96 1101.28,-643.96 1096.29,-643.65 1101.56,-639.47 1091.3,-643.33 1091.3,-643.33"/>
<polygon fill="#9c64d3" stroke="#9c64d3" points="644.93,-194.25 655.21,-198.07 649.92,-193.92 654.9,-193.58 654.9,-193.58 654.9,-193.58 649.92,-193.92 654.6,-189.09 644.93,-194.25 644.93,-194.25"/>
<text text-anchor="middle" x="559.5" y="-405.8" font-family="Times,serif" font-size="14.00">location</text>
</g>
<!-- Setting -->
<g id="node24" class="node">
<title>Setting</title>
<ellipse fill="none" stroke="black" cx="686" cy="-540" rx="36" ry="18"/>
<text text-anchor="middle" x="686" y="-536.3" font-family="Times,serif" font-size="14.00">Setting</text>
</g>
<!-- Tournament&#45;&gt;Setting -->
<g id="edge13" class="edge">
<title>Tournament&#45;&gt;Setting</title>
<path fill="none" stroke="#9afd10" d="M1091.2,-643.51C990.26,-637.09 797.07,-621.2 736,-591 723.79,-584.96 712.78,-574.77 704.21,-565.15"/>
<polygon fill="#9afd10" stroke="#9afd10" points="1091.28,-643.52 1100.98,-648.63 1096.27,-643.83 1101.26,-644.14 1101.26,-644.14 1101.26,-644.14 1096.27,-643.83 1101.54,-639.65 1091.28,-643.52 1091.28,-643.52"/>
<polygon fill="#9afd10" stroke="#9afd10" points="704.06,-564.97 701.06,-554.42 700.84,-561.14 697.62,-557.32 697.62,-557.32 697.62,-557.32 700.84,-561.14 694.18,-560.21 704.06,-564.97 704.06,-564.97"/>
</g>
<!-- Team -->
<g id="node25" class="node">
<title>Team</title>
<ellipse fill="none" stroke="black" cx="1498" cy="-540" rx="30.59" ry="18"/>
<text text-anchor="middle" x="1498" y="-536.3" font-family="Times,serif" font-size="14.00">Team</text>
</g>
<!-- Tournament&#45;&gt;Team -->
<g id="edge10" class="edge">
<title>Tournament&#45;&gt;Team</title>
<path fill="none" stroke="#471c48" d="M1202.06,-632.19C1271.73,-610.72 1399.25,-571.43 1461.65,-552.2"/>
<polygon fill="#471c48" stroke="#471c48" points="1201.68,-632.31 1190.8,-630.95 1196.91,-633.78 1192.13,-635.25 1192.13,-635.25 1192.13,-635.25 1196.91,-633.78 1193.45,-639.55 1201.68,-632.31 1201.68,-632.31"/>
<polygon fill="#471c48" stroke="#471c48" points="1461.89,-552.13 1472.77,-553.48 1466.67,-550.65 1471.45,-549.18 1471.45,-549.18 1471.45,-549.18 1466.67,-550.65 1470.12,-544.88 1461.89,-552.13 1461.89,-552.13"/>
</g>
<!-- League -->
<g id="node27" class="node">
<title>League</title>
<ellipse fill="none" stroke="black" cx="986" cy="-366" rx="36.29" ry="18"/>
<text text-anchor="middle" x="986" y="-362.3" font-family="Times,serif" font-size="14.00">League</text>
</g>
<!-- Tournament&#45;&gt;League -->
<g id="edge7" class="edge">
<title>Tournament&#45;&gt;League</title>
<path fill="none" stroke="#c69599" d="M1139.03,-621.43C1118.58,-586.85 1083.36,-528.68 1074,-522 1046.45,-502.33 1031.92,-515.27 1000,-504 967.57,-492.54 948.42,-500.05 930,-471 921.43,-457.49 920.8,-448.09 930,-435 943.58,-415.68 965.29,-435.48 980,-417 985.07,-410.63 987.25,-402.27 987.96,-394.22"/>
<polygon fill="#c69599" stroke="#c69599" points="1139.05,-621.47 1140.26,-632.37 1141.59,-625.78 1144.13,-630.08 1144.13,-630.08 1144.13,-630.08 1141.59,-625.78 1148.01,-627.8 1139.05,-621.47 1139.05,-621.47"/>
<polygon fill="#c69599" stroke="#c69599" points="987.97,-394 992.68,-384.09 988.07,-389 988.18,-384 988.18,-384 988.18,-384 988.07,-389 983.68,-383.9 987.97,-394 987.97,-394"/>
</g>
<!-- Region -->
<g id="node28" class="node">
<title>Region</title>
<ellipse fill="none" stroke="black" cx="847" cy="-453" rx="36.29" ry="18"/>
<text text-anchor="middle" x="847" y="-449.3" font-family="Times,serif" font-size="14.00">Region</text>
</g>
<!-- Tournament&#45;&gt;Region -->
<g id="edge4" class="edge">
<title>Tournament&#45;&gt;Region</title>
<path fill="none" stroke="#aefb25" d="M1093.31,-640.49C1003.2,-629.41 840.97,-603.54 807,-558 788.85,-533.66 807.99,-500.08 825.52,-477.73"/>
<polygon fill="#aefb25" stroke="#aefb25" points="1093.47,-640.51 1102.86,-646.17 1098.43,-641.11 1103.4,-641.71 1103.4,-641.71 1103.4,-641.71 1098.43,-641.11 1103.94,-637.24 1093.47,-640.51 1093.47,-640.51"/>
<polygon fill="#aefb25" stroke="#aefb25" points="825.72,-477.48 835.55,-472.62 828.9,-473.62 832.07,-469.76 832.07,-469.76 832.07,-469.76 828.9,-473.62 828.6,-466.9 825.72,-477.48 825.72,-477.48"/>
</g>
<!-- Game -->
<g id="node30" class="node">
<title>Game</title>
<ellipse fill="none" stroke="black" cx="2685" cy="-192" rx="32.49" ry="18"/>
<text text-anchor="middle" x="2685" y="-188.3" font-family="Times,serif" font-size="14.00">Game</text>
</g>
<!-- Tournament&#45;&gt;Game -->
<g id="edge9" class="edge">
<title>Tournament&#45;&gt;Game</title>
<path fill="none" stroke="#3d28c4" d="M1214.03,-640.17C1294.65,-631.31 1442.4,-616.14 1569,-609 1942.71,-587.92 2037.85,-620.44 2411,-591 2530.92,-581.54 2677,-661.29 2677,-541 2677,-541 2677,-541 2677,-278 2677,-258.67 2679.08,-236.97 2681.11,-220.34"/>
<polygon fill="#3d28c4" stroke="#3d28c4" points="1214,-640.18 1203.57,-636.8 1209.03,-640.73 1204.06,-641.28 1204.06,-641.28 1204.06,-641.28 1209.03,-640.73 1204.56,-645.75 1214,-640.18 1214,-640.18"/>
<polygon fill="#3d28c4" stroke="#3d28c4" points="2681.14,-220.13 2686.89,-210.79 2681.78,-215.17 2682.42,-210.21 2682.42,-210.21 2682.42,-210.21 2681.78,-215.17 2677.96,-209.63 2681.14,-220.13 2681.14,-220.13"/>
</g>
<!-- TournamentPlan -->
<g id="node34" class="node">
<title>TournamentPlan</title>
<ellipse fill="none" stroke="black" cx="2455" cy="-279" rx="69.59" ry="18"/>
<text text-anchor="middle" x="2455" y="-275.3" font-family="Times,serif" font-size="14.00">TournamentPlan</text>
</g>
<!-- Tournament&#45;&gt;TournamentPlan -->
<g id="edge6" class="edge">
<title>Tournament&#45;&gt;TournamentPlan</title>
<path fill="none" stroke="#c4c990" d="M1214.03,-640.19C1294.65,-631.35 1442.41,-616.2 1569,-609 1613.77,-606.45 2333.76,-606.07 2376,-591 2410,-578.87 2440,-577.1 2440,-541 2440,-541 2440,-541 2440,-365 2440,-345.46 2443.89,-323.76 2447.71,-307.18"/>
<polygon fill="#c4c990" stroke="#c4c990" points="1214,-640.2 1203.57,-636.82 1209.03,-640.74 1204.06,-641.29 1204.06,-641.29 1204.06,-641.29 1209.03,-640.74 1204.56,-645.76 1214,-640.2 1214,-640.2"/>
<polygon fill="#c4c990" stroke="#c4c990" points="2447.8,-306.82 2454.54,-298.17 2448.99,-301.96 2450.17,-297.1 2450.17,-297.1 2450.17,-297.1 2448.99,-301.96 2445.8,-296.03 2447.8,-306.82 2447.8,-306.82"/>
</g>
<!-- PartyGame -->
<g id="node37" class="node">
<title>PartyGame</title>
<ellipse fill="none" stroke="black" cx="1545" cy="-453" rx="50.89" ry="18"/>
<text text-anchor="middle" x="1545" y="-449.3" font-family="Times,serif" font-size="14.00">PartyGame</text>
</g>
<!-- Tournament&#45;&gt;PartyGame -->
<g id="edge11" class="edge">
<title>Tournament&#45;&gt;PartyGame</title>
<path fill="none" stroke="#8b726f" d="M1214.45,-640.03C1339.9,-624.13 1621.21,-580.5 1673,-504 1692.75,-474.83 1647.13,-462.67 1604.98,-457.61"/>
<polygon fill="#8b726f" stroke="#8b726f" points="1214.17,-640.06 1203.69,-636.84 1209.21,-640.69 1204.24,-641.31 1204.24,-641.31 1204.24,-641.31 1209.21,-640.69 1204.8,-645.77 1214.17,-640.06 1214.17,-640.06"/>
<polygon fill="#8b726f" stroke="#8b726f" points="1604.89,-457.6 1595.43,-452.05 1599.92,-457.06 1594.95,-456.53 1594.95,-456.53 1594.95,-456.53 1599.92,-457.06 1594.46,-461 1604.89,-457.6 1604.89,-457.6"/>
</g>
<!-- Discipline -->
<g id="node39" class="node">
<title>Discipline</title>
<ellipse fill="none" stroke="black" cx="1901" cy="-279" rx="46.59" ry="18"/>
<text text-anchor="middle" x="1901" y="-275.3" font-family="Times,serif" font-size="14.00">Discipline</text>
</g>
<!-- Tournament&#45;&gt;Discipline -->
<g id="edge3" class="edge">
<title>Tournament&#45;&gt;Discipline</title>
<path fill="none" stroke="#efebc8" d="M1215.71,-641.83C1399.73,-625.99 1932,-577.08 1932,-541 1932,-541 1932,-541 1932,-365 1932,-344.12 1923.64,-322.01 1915.61,-305.57"/>
<polygon fill="#efebc8" stroke="#efebc8" points="1215.61,-641.84 1205.26,-638.21 1210.63,-642.26 1205.65,-642.69 1205.65,-642.69 1205.65,-642.69 1210.63,-642.26 1206.03,-647.17 1215.61,-641.84 1215.61,-641.84"/>
<polygon fill="#efebc8" stroke="#efebc8" points="1915.57,-305.49 1914.98,-294.54 1913.27,-301.05 1910.98,-296.61 1910.98,-296.61 1910.98,-296.61 1913.27,-301.05 1906.98,-298.67 1915.57,-305.49 1915.57,-305.49"/>
</g>
<!-- Seeding -->
<g id="node40" class="node">
<title>Seeding</title>
<ellipse fill="none" stroke="black" cx="2194" cy="-192" rx="38.99" ry="18"/>
<text text-anchor="middle" x="2194" y="-188.3" font-family="Times,serif" font-size="14.00">Seeding</text>
</g>
<!-- Tournament&#45;&gt;Seeding -->
<g id="edge8" class="edge">
<title>Tournament&#45;&gt;Seeding</title>
<path fill="none" stroke="#3e0b26" d="M1215.12,-641.29C1296.05,-633.76 1443.22,-620.15 1569,-609 1657.09,-601.19 2362,-629.43 2362,-541 2362,-541 2362,-541 2362,-365 2362,-317.56 2367.76,-297.94 2338,-261 2313.08,-230.08 2270.79,-212.45 2238.47,-202.93"/>
<polygon fill="#3e0b26" stroke="#3e0b26" points="1215.06,-641.3 1204.69,-637.74 1210.08,-641.76 1205.1,-642.23 1205.1,-642.23 1205.1,-642.23 1210.08,-641.76 1205.52,-646.71 1215.06,-641.3 1215.06,-641.3"/>
<polygon fill="#3e0b26" stroke="#3e0b26" points="2238.42,-202.91 2230,-195.89 2233.6,-201.57 2228.79,-200.23 2228.79,-200.23 2228.79,-200.23 2233.6,-201.57 2227.58,-204.56 2238.42,-202.91 2238.42,-202.91"/>
</g>
<!-- TournamentLocal -->
<g id="node43" class="node">
<title>TournamentLocal</title>
<ellipse fill="none" stroke="black" cx="3000" cy="-540" rx="73.39" ry="18"/>
<text text-anchor="middle" x="3000" y="-536.3" font-family="Times,serif" font-size="14.00">TournamentLocal</text>
</g>
<!-- Tournament&#45;&gt;TournamentLocal -->
<g id="edge16" class="edge">
<title>Tournament&#45;&gt;TournamentLocal</title>
<path fill="none" stroke="#18b19e" d="M1214.02,-640.02C1294.63,-630.99 1442.38,-615.64 1569,-609 1643.57,-605.09 2840.98,-610.74 2913,-591 2933.56,-585.37 2954.33,-573.7 2970.43,-563.05"/>
<polygon fill="#18b19e" stroke="#18b19e" points="1213.99,-640.03 1203.55,-636.67 1209.02,-640.59 1204.06,-641.15 1204.06,-641.15 1204.06,-641.15 1209.02,-640.59 1204.56,-645.62 1213.99,-640.03 1213.99,-640.03"/>
<polygon fill="#18b19e" stroke="#18b19e" points="2970.6,-562.93 2981.4,-561 2974.73,-560.11 2978.86,-557.28 2978.86,-557.28 2978.86,-557.28 2974.73,-560.11 2976.31,-553.57 2970.6,-562.93 2970.6,-562.93"/>
</g>
<!-- PaperTrail::Version -->
<g id="node47" class="node">
<title>PaperTrail::Version</title>
<ellipse fill="none" stroke="black" cx="2648" cy="-105" rx="79.09" ry="18"/>
<text text-anchor="middle" x="2648" y="-101.3" font-family="Times,serif" font-size="14.00">PaperTrail::Version</text>
</g>
<!-- Tournament&#45;&gt;PaperTrail::Version -->
<g id="edge2" class="edge">
<title>Tournament&#45;&gt;PaperTrail::Version</title>
<path fill="none" stroke="#5c1ec0" d="M1214.03,-640.07C1294.63,-631.09 1442.38,-615.78 1569,-609 1823.56,-595.37 2463.62,-626.88 2716,-591 2799.48,-579.13 2899,-625.31 2899,-541 2899,-541 2899,-541 2899,-191 2899,-178.36 2860.62,-152.94 2832,-141 2799.91,-127.61 2762.52,-119.31 2729.86,-114.17"/>
<polygon fill="#5c1ec0" stroke="#5c1ec0" points="1214,-640.07 1203.56,-636.71 1209.03,-640.63 1204.06,-641.18 1204.06,-641.18 1204.06,-641.18 1209.03,-640.63 1204.56,-645.66 1214,-640.07 1214,-640.07"/>
<polygon fill="#5c1ec0" stroke="#5c1ec0" points="2729.78,-114.15 2720.55,-108.22 2724.83,-113.41 2719.89,-112.67 2719.89,-112.67 2719.89,-112.67 2724.83,-113.41 2719.22,-117.12 2729.78,-114.15 2729.78,-114.15"/>
<text text-anchor="middle" x="2922" y="-362.3" font-family="Times,serif" font-size="14.00">versions</text>
</g>
<!-- Organizer -->
<g id="node48" class="node">
<title>Organizer</title>
<ellipse fill="none" stroke="black" cx="697" cy="-105" rx="46.29" ry="18"/>
<text text-anchor="middle" x="697" y="-101.3" font-family="Times,serif" font-size="14.00">Organizer</text>
</g>
<!-- Tournament&#45;&gt;Organizer -->
<g id="edge14" class="edge">
<title>Tournament&#45;&gt;Organizer</title>
<path fill="none" stroke="#1ff7b1" d="M1089.84,-646.71C944.03,-645.25 592.06,-636.91 484,-591 452.98,-577.82 427,-574.7 427,-541 427,-541 427,-541 427,-191 427,-146.2 563.94,-122.1 642.77,-111.94"/>
<polygon fill="#1ff7b1" stroke="#1ff7b1" points="1089.97,-646.71 1099.93,-651.31 1094.97,-646.76 1099.97,-646.81 1099.97,-646.81 1099.97,-646.81 1094.97,-646.76 1100.01,-642.31 1089.97,-646.71 1089.97,-646.71"/>
<polygon fill="#1ff7b1" stroke="#1ff7b1" points="643.1,-111.9 653.58,-115.12 648.06,-111.28 653.02,-110.65 653.02,-110.65 653.02,-110.65 648.06,-111.28 652.46,-106.19 643.1,-111.9 643.1,-111.9"/>
</g>
<!-- AccountInvitation -->
<g id="node4" class="node">
<title>AccountInvitation</title>
<ellipse fill="none" stroke="black" cx="1598" cy="-192" rx="74.99" ry="18"/>
<text text-anchor="middle" x="1598" y="-188.3" font-family="Times,serif" font-size="14.00">AccountInvitation</text>
</g>
<!-- Account -->
<g id="node7" class="node">
<title>Account</title>
<ellipse fill="none" stroke="black" cx="1515" cy="-105" rx="40.09" ry="18"/>
<text text-anchor="middle" x="1515" y="-101.3" font-family="Times,serif" font-size="14.00">Account</text>
</g>
<!-- AccountInvitation&#45;&gt;Account -->
<g id="edge19" class="edge">
<title>AccountInvitation&#45;&gt;Account</title>
<path fill="none" stroke="#bafc38" d="M1574.59,-167.02C1563.02,-155.18 1549.12,-140.94 1537.65,-129.2"/>
<polygon fill="#bafc38" stroke="#bafc38" points="1574.62,-167.05 1578.38,-177.35 1578.11,-170.63 1581.6,-174.21 1581.6,-174.21 1581.6,-174.21 1578.11,-170.63 1584.82,-171.06 1574.62,-167.05 1574.62,-167.05"/>
<polygon fill="#bafc38" stroke="#bafc38" points="1537.51,-129.05 1533.74,-118.75 1534.02,-125.47 1530.52,-121.9 1530.52,-121.9 1530.52,-121.9 1534.02,-125.47 1527.3,-125.04 1537.51,-129.05 1537.51,-129.05"/>
</g>
<!-- User -->
<g id="node45" class="node">
<title>User</title>
<ellipse fill="none" stroke="black" cx="1540" cy="-279" rx="27.1" ry="18"/>
<text text-anchor="middle" x="1540" y="-275.3" font-family="Times,serif" font-size="14.00">User</text>
</g>
<!-- AccountInvitation&#45;&gt;User -->
<g id="edge20" class="edge">
<title>AccountInvitation&#45;&gt;User</title>
<path fill="none" stroke="#53cbb1" d="M1580.64,-218.44C1573,-229.63 1564.08,-242.71 1556.54,-253.76"/>
<polygon fill="#53cbb1" stroke="#53cbb1" points="1580.8,-218.21 1590.15,-212.49 1583.62,-214.08 1586.43,-209.95 1586.43,-209.95 1586.43,-209.95 1583.62,-214.08 1582.72,-207.41 1580.8,-218.21 1580.8,-218.21"/>
<polygon fill="#53cbb1" stroke="#53cbb1" points="1556.27,-254.15 1546.92,-259.87 1553.46,-258.28 1550.64,-262.41 1550.64,-262.41 1550.64,-262.41 1553.46,-258.28 1554.36,-264.95 1556.27,-254.15 1556.27,-254.15"/>
<text text-anchor="middle" x="1602" y="-231.8" font-family="Times,serif" font-size="14.00">invited_by</text>
</g>
<!-- LeagueTeam -->
<g id="node5" class="node">
<title>LeagueTeam</title>
<ellipse fill="none" stroke="black" cx="1196" cy="-453" rx="56.59" ry="18"/>
<text text-anchor="middle" x="1196" y="-449.3" font-family="Times,serif" font-size="14.00">LeagueTeam</text>
</g>
<!-- LeagueTeam&#45;&gt;League -->
<g id="edge21" class="edge">
<title>LeagueTeam&#45;&gt;League</title>
<path fill="none" stroke="#cc2d79" d="M1166.4,-430.29C1150.06,-418.65 1131.24,-405.91 1122,-402 1086.04,-386.78 1073.67,-394.3 1036,-384 1032.13,-382.94 1028.12,-381.75 1024.14,-380.5"/>
<polygon fill="#cc2d79" stroke="#cc2d79" points="1166.54,-430.39 1172.03,-439.88 1170.6,-433.3 1174.66,-436.22 1174.66,-436.22 1174.66,-436.22 1170.6,-433.3 1177.28,-432.57 1166.54,-430.39 1166.54,-430.39"/>
<polygon fill="#cc2d79" stroke="#cc2d79" points="1023.88,-380.41 1015.77,-373.03 1019.13,-378.86 1014.37,-377.31 1014.37,-377.31 1014.37,-377.31 1019.13,-378.86 1012.98,-381.59 1023.88,-380.41 1023.88,-380.41"/>
</g>
<!-- Club -->
<g id="node29" class="node">
<title>Club</title>
<ellipse fill="none" stroke="black" cx="827" cy="-279" rx="27.9" ry="18"/>
<text text-anchor="middle" x="827" y="-275.3" font-family="Times,serif" font-size="14.00">Club</text>
</g>
<!-- LeagueTeam&#45;&gt;Club -->
<g id="edge22" class="edge">
<title>LeagueTeam&#45;&gt;Club</title>
<path fill="none" stroke="#9775fa" d="M1175.52,-427.68C1167.27,-418.85 1157.28,-409.27 1147,-402 1123.79,-385.58 1058.15,-356.46 1031,-348 985.38,-333.79 970.36,-345.03 925,-330 900.38,-321.84 874.31,-308.27 855.25,-297.33"/>
<polygon fill="#9775fa" stroke="#9775fa" points="1175.58,-427.74 1178.94,-438.18 1178.93,-431.45 1182.28,-435.16 1182.28,-435.16 1182.28,-435.16 1178.93,-431.45 1185.62,-432.15 1175.58,-427.74 1175.58,-427.74"/>
<polygon fill="#9775fa" stroke="#9775fa" points="855.12,-297.25 848.77,-288.32 850.81,-294.73 846.49,-292.2 846.49,-292.2 846.49,-292.2 850.81,-294.73 844.22,-296.08 855.12,-297.25 855.12,-297.25"/>
</g>
<!-- LeagueTeam&#45;&gt;Seeding -->
<g id="edge23" class="edge">
<title>LeagueTeam&#45;&gt;Seeding</title>
<path fill="none" stroke="#0ba560" d="M1235.88,-433.68C1262.28,-422.44 1298,-408.93 1331,-402 1397.45,-388.06 1572.68,-408.51 1636,-384 1687.43,-364.09 1777.54,-247.83 1829,-228 1895.66,-202.3 2080.16,-225.06 2150,-210 2152.45,-209.47 2154.95,-208.83 2157.44,-208.1"/>
<polygon fill="#0ba560" stroke="#0ba560" points="1235.77,-433.72 1224.81,-433.56 1231.18,-435.71 1226.6,-437.69 1226.6,-437.69 1226.6,-437.69 1231.18,-435.71 1228.38,-441.82 1235.77,-433.72 1235.77,-433.72"/>
<polygon fill="#0ba560" stroke="#0ba560" points="2157.45,-208.1 2168.35,-209.24 2162.2,-206.53 2166.94,-204.97 2166.94,-204.97 2166.94,-204.97 2162.2,-206.53 2165.54,-200.69 2157.45,-208.1 2157.45,-208.1"/>
</g>
<!-- TableMonitor -->
<g id="node6" class="node">
<title>TableMonitor</title>
<ellipse fill="none" stroke="black" cx="2583" cy="-540" rx="59.59" ry="18"/>
<text text-anchor="middle" x="2583" y="-536.3" font-family="Times,serif" font-size="14.00">TableMonitor</text>
</g>
<!-- Table -->
<g id="node11" class="node">
<title>Table</title>
<ellipse fill="none" stroke="black" cx="2008" cy="-453" rx="30.59" ry="18"/>
<text text-anchor="middle" x="2008" y="-449.3" font-family="Times,serif" font-size="14.00">Table</text>
</g>
<!-- TableMonitor&#45;&gt;Table -->
<g id="edge26" class="edge">
<title>TableMonitor&#45;&gt;Table</title>
<path fill="none" stroke="#9521bb" d="M2520.67,-529.79C2401.74,-512.2 2145.57,-474.34 2047.39,-459.82"/>
<polygon fill="#9521bb" stroke="#9521bb" points="2520.81,-529.81 2530.05,-535.72 2525.76,-530.54 2530.7,-531.27 2530.7,-531.27 2530.7,-531.27 2525.76,-530.54 2531.36,-526.82 2520.81,-529.81 2520.81,-529.81"/>
<polygon fill="#9521bb" stroke="#9521bb" points="2047.2,-459.79 2037.96,-453.88 2042.25,-459.06 2037.31,-458.33 2037.31,-458.33 2037.31,-458.33 2042.25,-459.06 2036.65,-462.78 2047.2,-459.79 2047.2,-459.79"/>
</g>
<!-- TableMonitor&#45;&gt;TournamentMonitor -->
<g id="edge24" class="edge">
<title>TableMonitor&#45;&gt;TournamentMonitor</title>
<path fill="none" stroke="#59aab0" d="M2626.4,-521.01C2660.31,-506.94 2707.34,-487.44 2741.93,-473.1"/>
<polygon fill="#59aab0" stroke="#59aab0" points="2626.09,-521.13 2615.13,-520.81 2621.47,-523.05 2616.85,-524.96 2616.85,-524.96 2616.85,-524.96 2621.47,-523.05 2618.58,-529.12 2626.09,-521.13 2626.09,-521.13"/>
<polygon fill="#59aab0" stroke="#59aab0" points="2742.09,-473.04 2753.05,-473.36 2746.71,-471.12 2751.33,-469.21 2751.33,-469.21 2751.33,-469.21 2746.71,-471.12 2749.6,-465.05 2742.09,-473.04 2742.09,-473.04"/>
</g>
<!-- TableMonitor&#45;&gt;Game -->
<g id="edge25" class="edge">
<title>TableMonitor&#45;&gt;Game</title>
<path fill="none" stroke="#8f7d8b" d="M2609.01,-515.64C2623.64,-499.88 2639,-477.69 2639,-454 2639,-454 2639,-454 2639,-278 2639,-255 2652.19,-232.25 2664.45,-216.09"/>
<polygon fill="#8f7d8b" stroke="#8f7d8b" points="2608.96,-515.7 2598.74,-519.69 2605.46,-519.27 2601.96,-522.84 2601.96,-522.84 2601.96,-522.84 2605.46,-519.27 2605.17,-525.99 2608.96,-515.7 2608.96,-515.7"/>
<polygon fill="#8f7d8b" stroke="#8f7d8b" points="2664.45,-216.08 2674.21,-211.08 2667.58,-212.17 2670.7,-208.27 2670.7,-208.27 2670.7,-208.27 2667.58,-212.17 2667.18,-205.46 2664.45,-216.08 2664.45,-216.08"/>
</g>
<!-- TableMonitor&#45;&gt;PaperTrail::Version -->
<g id="edge27" class="edge">
<title>TableMonitor&#45;&gt;PaperTrail::Version</title>
<path fill="none" stroke="#34aed5" d="M2579.46,-511.93C2574.6,-469.6 2567.7,-385.3 2579,-315 2589.91,-247.15 2619.54,-171.48 2636.21,-132.47"/>
<polygon fill="#34aed5" stroke="#34aed5" points="2579.47,-512.07 2576.2,-522.53 2580.07,-517.03 2580.67,-522 2580.67,-522 2580.67,-522 2580.07,-517.03 2585.13,-521.46 2579.47,-512.07 2579.47,-512.07"/>
<polygon fill="#34aed5" stroke="#34aed5" points="2636.28,-132.32 2644.38,-124.93 2638.26,-127.73 2640.25,-123.14 2640.25,-123.14 2640.25,-123.14 2638.26,-127.73 2636.12,-121.36 2636.28,-132.32 2636.28,-132.32"/>
<text text-anchor="middle" x="2602" y="-318.8" font-family="Times,serif" font-size="14.00">versions</text>
</g>
<!-- AccountUser -->
<g id="node17" class="node">
<title>AccountUser</title>
<ellipse fill="none" stroke="black" cx="1366" cy="-18" rx="57.39" ry="18"/>
<text text-anchor="middle" x="1366" y="-14.3" font-family="Times,serif" font-size="14.00">AccountUser</text>
</g>
<!-- Account&#45;&gt;AccountUser -->
<g id="edge31" class="edge">
<title>Account&#45;&gt;AccountUser</title>
<path fill="none" stroke="#2255ec" d="M1482.36,-85.38C1458.42,-71.72 1425.94,-53.19 1401.38,-39.18"/>
<polygon fill="#2255ec" stroke="#2255ec" points="1482.37,-85.39 1488.83,-94.25 1486.72,-87.87 1491.06,-90.34 1491.06,-90.34 1491.06,-90.34 1486.72,-87.87 1493.29,-86.43 1482.37,-85.39 1482.37,-85.39"/>
<polygon fill="#2255ec" stroke="#2255ec" points="1401.08,-39.01 1394.62,-30.15 1396.73,-36.53 1392.39,-34.06 1392.39,-34.06 1392.39,-34.06 1396.73,-36.53 1390.16,-37.96 1401.08,-39.01 1401.08,-39.01"/>
</g>
<!-- Account&#45;&gt;User -->
<g id="edge30" class="edge">
<title>Account&#45;&gt;User</title>
<path fill="none" stroke="#bdd144" d="M1496.9,-130.77C1483.74,-151.95 1469.86,-183.18 1480,-210 1487.12,-228.84 1502.1,-245.82 1515.31,-258.11"/>
<polygon fill="#bdd144" stroke="#bdd144" points="1496.94,-130.71 1506.19,-124.81 1499.68,-126.52 1502.42,-122.34 1502.42,-122.34 1502.42,-122.34 1499.68,-126.52 1498.66,-119.88 1496.94,-130.71 1496.94,-130.71"/>
<polygon fill="#bdd144" stroke="#bdd144" points="1515.34,-258.13 1519.82,-268.14 1519.08,-261.45 1522.81,-264.78 1522.81,-264.78 1522.81,-264.78 1519.08,-261.45 1525.8,-261.41 1515.34,-258.13 1515.34,-258.13"/>
<text text-anchor="middle" x="1497" y="-188.3" font-family="Times,serif" font-size="14.00">owner</text>
</g>
<!-- Account&#45;&gt;User -->
<g id="edge32" class="edge">
<title>Account&#45;&gt;User</title>
<path fill="none" stroke="#e7a671" d="M1465.12,-109.25C1378.81,-116.76 1215.75,-140.39 1270,-210 1298.49,-246.55 1435.77,-266.5 1502.89,-274.21"/>
<polygon fill="#e7a671" stroke="#e7a671" points="1465.29,-109.23 1475.62,-112.89 1470.27,-108.82 1475.25,-108.41 1475.25,-108.41 1475.25,-108.41 1470.27,-108.82 1474.88,-103.92 1465.29,-109.23 1465.29,-109.23"/>
<polygon fill="#e7a671" stroke="#e7a671" points="1503.1,-274.23 1512.53,-279.81 1508.06,-274.78 1513.03,-275.34 1513.03,-275.34 1513.03,-275.34 1508.06,-274.78 1513.53,-270.87 1503.1,-274.23 1503.1,-274.23"/>
</g>
<!-- Pay::Charge -->
<g id="node49" class="node">
<title>Pay::Charge</title>
<ellipse fill="none" stroke="black" cx="1660" cy="-18" rx="53.89" ry="18"/>
<text text-anchor="middle" x="1660" y="-14.3" font-family="Times,serif" font-size="14.00">Pay::Charge</text>
</g>
<!-- Account&#45;&gt;Pay::Charge -->
<g id="edge28" class="edge">
<title>Account&#45;&gt;Pay::Charge</title>
<path fill="none" stroke="#9adfd7" d="M1552.99,-88.26C1565.37,-82.67 1579.01,-76.01 1591,-69 1605.11,-60.75 1619.89,-50.3 1632.14,-41.1"/>
<polygon fill="#9adfd7" stroke="#9adfd7" points="1552.97,-88.27 1542,-88.2 1548.39,-90.29 1543.82,-92.31 1543.82,-92.31 1543.82,-92.31 1548.39,-90.29 1545.64,-96.43 1552.97,-88.27 1552.97,-88.27"/>
<polygon fill="#9adfd7" stroke="#9adfd7" points="1632.23,-41.03 1642.91,-38.54 1636.2,-38 1640.18,-34.96 1640.18,-34.96 1640.18,-34.96 1636.2,-38 1637.45,-31.39 1632.23,-41.03 1632.23,-41.03"/>
<text text-anchor="middle" x="1634" y="-57.8" font-family="Times,serif" font-size="14.00">charges</text>
</g>
<!-- Pay::Subscription -->
<g id="node50" class="node">
<title>Pay::Subscription</title>
<ellipse fill="none" stroke="black" cx="1515" cy="-18" rx="73.39" ry="18"/>
<text text-anchor="middle" x="1515" y="-14.3" font-family="Times,serif" font-size="14.00">Pay::Subscription</text>
</g>
<!-- Account&#45;&gt;Pay::Subscription -->
<g id="edge29" class="edge">
<title>Account&#45;&gt;Pay::Subscription</title>
<path fill="none" stroke="#e06edb" d="M1515,-76.73C1515,-67.06 1515,-56.17 1515,-46.48"/>
<polygon fill="#e06edb" stroke="#e06edb" points="1515,-76.8 1510.5,-86.8 1515,-81.8 1515,-86.8 1515,-86.8 1515,-86.8 1515,-81.8 1519.5,-86.8 1515,-76.8 1515,-76.8"/>
<polygon fill="#e06edb" stroke="#e06edb" points="1515,-46.18 1519.5,-36.18 1515,-41.18 1515,-36.18 1515,-36.18 1515,-36.18 1515,-41.18 1510.5,-36.18 1515,-46.18 1515,-46.18"/>
<text text-anchor="middle" x="1551" y="-57.8" font-family="Times,serif" font-size="14.00">subscriptions</text>
</g>
<!-- ActiveStorage::Attachment -->
<g id="node51" class="node">
<title>ActiveStorage::Attachment</title>
<ellipse fill="none" stroke="black" cx="1000" cy="-18" rx="107.48" ry="18"/>
<text text-anchor="middle" x="1000" y="-14.3" font-family="Times,serif" font-size="14.00">ActiveStorage::Attachment</text>
</g>
<!-- Account&#45;&gt;ActiveStorage::Attachment -->
<g id="edge33" class="edge">
<title>Account&#45;&gt;ActiveStorage::Attachment</title>
<path fill="none" stroke="#179d3b" d="M1465.37,-100.01C1405.32,-94.79 1301.29,-84.43 1213,-69 1162.6,-60.19 1106.27,-46.81 1064.2,-36.11"/>
<polygon fill="#179d3b" stroke="#179d3b" points="1465.74,-100.05 1475.31,-105.38 1470.72,-100.47 1475.7,-100.9 1475.7,-100.9 1475.7,-100.9 1470.72,-100.47 1476.08,-96.42 1465.74,-100.05 1465.74,-100.05"/>
<polygon fill="#179d3b" stroke="#179d3b" points="1064.05,-36.07 1055.48,-29.23 1059.21,-34.83 1054.37,-33.59 1054.37,-33.59 1054.37,-33.59 1059.21,-34.83 1053.25,-37.95 1064.05,-36.07 1064.05,-36.07"/>
<text text-anchor="middle" x="1263" y="-57.8" font-family="Times,serif" font-size="14.00">avatar_attachment</text>
</g>
<!-- ActiveStorage::Blob -->
<g id="node52" class="node">
<title>ActiveStorage::Blob</title>
<ellipse fill="none" stroke="black" cx="1208" cy="-18" rx="83.39" ry="18"/>
<text text-anchor="middle" x="1208" y="-14.3" font-family="Times,serif" font-size="14.00">ActiveStorage::Blob</text>
</g>
<!-- Account&#45;&gt;ActiveStorage::Blob -->
<g id="edge34" class="edge">
<title>Account&#45;&gt;ActiveStorage::Blob</title>
<path fill="none" stroke="#e3c6eb" d="M1469.3,-94.44C1439.23,-87.89 1399.08,-78.67 1364,-69 1328.87,-59.32 1289.82,-46.8 1259.58,-36.71"/>
<polygon fill="#e3c6eb" stroke="#e3c6eb" points="1469.32,-94.44 1478.15,-100.95 1474.21,-95.49 1479.1,-96.55 1479.1,-96.55 1479.1,-96.55 1474.21,-95.49 1480.05,-92.15 1469.32,-94.44 1469.32,-94.44"/>
<polygon fill="#e3c6eb" stroke="#e3c6eb" points="1259.57,-36.71 1251.52,-29.26 1254.83,-35.12 1250.09,-33.53 1250.09,-33.53 1250.09,-33.53 1254.83,-35.12 1248.66,-37.8 1259.57,-36.71 1259.57,-36.71"/>
<text text-anchor="middle" x="1396" y="-57.8" font-family="Times,serif" font-size="14.00">avatar_blob</text>
</g>
<!-- Party&#45;&gt;LeagueTeam -->
<g id="edge37" class="edge">
<title>Party&#45;&gt;LeagueTeam</title>
<path fill="none" stroke="#103ccb" d="M1150.14,-525.47C1146.74,-524.24 1143.31,-523.05 1140,-522 1105.68,-511.1 1044.09,-517.58 1066,-489 1068.5,-485.74 1107.48,-475.5 1142.1,-466.93"/>
<polygon fill="#103ccb" stroke="#103ccb" points="1150.21,-525.5 1157.96,-533.26 1154.88,-527.28 1159.55,-529.05 1159.55,-529.05 1159.55,-529.05 1154.88,-527.28 1161.15,-524.85 1150.21,-525.5 1150.21,-525.5"/>
<polygon fill="#103ccb" stroke="#103ccb" points="1142.48,-466.84 1153.27,-468.82 1147.34,-465.65 1152.19,-464.45 1152.19,-464.45 1152.19,-464.45 1147.34,-465.65 1151.12,-460.08 1142.48,-466.84 1142.48,-466.84"/>
<text text-anchor="middle" x="1107" y="-492.8" font-family="Times,serif" font-size="14.00">league_team_a</text>
</g>
<!-- Party&#45;&gt;LeagueTeam -->
<g id="edge38" class="edge">
<title>Party&#45;&gt;LeagueTeam</title>
<path fill="none" stroke="#3326e6" d="M1171.34,-512.95C1169.31,-505.18 1168.54,-496.68 1171,-489 1172.08,-485.63 1173.62,-482.3 1175.41,-479.12"/>
<polygon fill="#3326e6" stroke="#3326e6" points="1171.4,-513.13 1170.3,-524.04 1172.98,-517.87 1174.57,-522.62 1174.57,-522.62 1174.57,-522.62 1172.98,-517.87 1178.84,-521.19 1171.4,-513.13 1171.4,-513.13"/>
<polygon fill="#3326e6" stroke="#3326e6" points="1175.48,-479.01 1184.72,-473.09 1178.22,-474.82 1180.95,-470.63 1180.95,-470.63 1180.95,-470.63 1178.22,-474.82 1177.18,-468.18 1175.48,-479.01 1175.48,-479.01"/>
<text text-anchor="middle" x="1212.5" y="-492.8" font-family="Times,serif" font-size="14.00">league_team_b</text>
</g>
<!-- Party&#45;&gt;LeagueTeam -->
<g id="edge39" class="edge">
<title>Party&#45;&gt;LeagueTeam</title>
<path fill="none" stroke="#5928a0" d="M1219.56,-529.81C1232.76,-524.53 1246.29,-516.4 1254,-504 1261.55,-491.87 1252.54,-481.11 1239.54,-472.71"/>
<polygon fill="#5928a0" stroke="#5928a0" points="1219.52,-529.82 1208.59,-528.92 1214.81,-531.49 1210.09,-533.16 1210.09,-533.16 1210.09,-533.16 1214.81,-531.49 1211.6,-537.4 1219.52,-529.82 1219.52,-529.82"/>
<polygon fill="#5928a0" stroke="#5928a0" points="1239.23,-472.53 1232.8,-463.64 1234.89,-470.04 1230.56,-467.54 1230.56,-467.54 1230.56,-467.54 1234.89,-470.04 1228.31,-471.44 1239.23,-472.53 1239.23,-472.53"/>
<text text-anchor="middle" x="1306.5" y="-492.8" font-family="Times,serif" font-size="14.00">host_league_team</text>
</g>
<!-- Party&#45;&gt;PartyTournament -->
<g id="edge40" class="edge">
<title>Party&#45;&gt;PartyTournament</title>
<path fill="none" stroke="#31cfbd" d="M1150.23,-525.17C1146.81,-523.99 1143.36,-522.9 1140,-522 1114.18,-515.04 1040.35,-522.46 1021,-504 1014.87,-498.16 1011.93,-489.7 1010.64,-481.4"/>
<polygon fill="#31cfbd" stroke="#31cfbd" points="1150.29,-525.19 1158.1,-532.89 1154.98,-526.93 1159.67,-528.67 1159.67,-528.67 1159.67,-528.67 1154.98,-526.93 1161.23,-524.45 1150.29,-525.19 1150.29,-525.19"/>
<polygon fill="#31cfbd" stroke="#31cfbd" points="1010.62,-481.15 1014.27,-470.81 1010.21,-476.16 1009.79,-471.18 1009.79,-471.18 1009.79,-471.18 1010.21,-476.16 1005.3,-471.56 1010.62,-481.15 1010.62,-481.15"/>
</g>
<!-- Party&#45;&gt;League -->
<g id="edge35" class="edge">
<title>Party&#45;&gt;League</title>
<path fill="none" stroke="#af8127" d="M1148.15,-527.47C1142.12,-525.57 1135.89,-523.68 1130,-522 1098.28,-512.96 1078.3,-530 1058,-504 1037.71,-478.01 1091.18,-472.37 1092,-471 1100.25,-457.29 1099.67,-449.04 1092,-435 1077.74,-408.92 1048.73,-391.36 1024.66,-380.63"/>
<polygon fill="#af8127" stroke="#af8127" points="1148.5,-527.58 1156.66,-534.91 1153.27,-529.1 1158.03,-530.62 1158.03,-530.62 1158.03,-530.62 1153.27,-529.1 1159.4,-526.33 1148.5,-527.58 1148.5,-527.58"/>
<polygon fill="#af8127" stroke="#af8127" points="1024.6,-380.6 1017.13,-372.57 1019.99,-378.66 1015.38,-376.71 1015.38,-376.71 1015.38,-376.71 1019.99,-378.66 1013.63,-380.86 1024.6,-380.6 1024.6,-380.6"/>
</g>
<!-- Party&#45;&gt;Game -->
<g id="edge36" class="edge">
<title>Party&#45;&gt;Game</title>
<path fill="none" stroke="#5b46c6" d="M1222,-536.43C1305,-530.92 1505.25,-517.37 1673,-504 1839.78,-490.71 1884.15,-504.83 2048,-471 2168.57,-446.1 2195.17,-425.72 2311,-384 2411.09,-347.95 2440.01,-346.84 2534,-297 2580.58,-272.3 2630.11,-236.02 2659.26,-213.49"/>
<polygon fill="#5b46c6" stroke="#5b46c6" points="1221.99,-536.43 1211.71,-532.61 1217,-536.76 1212.01,-537.1 1212.01,-537.1 1212.01,-537.1 1217,-536.76 1212.31,-541.59 1221.99,-536.43 1221.99,-536.43"/>
<polygon fill="#5b46c6" stroke="#5b46c6" points="2659.39,-213.39 2670.04,-210.79 2663.33,-210.32 2667.27,-207.24 2667.27,-207.24 2667.27,-207.24 2663.33,-210.32 2664.51,-203.69 2659.39,-213.39 2659.39,-213.39"/>
</g>
<!-- Party&#45;&gt;PartyGame -->
<g id="edge41" class="edge">
<title>Party&#45;&gt;PartyGame</title>
<path fill="none" stroke="#a64fec" d="M1220.76,-532.31C1256.71,-525.76 1312.25,-515.16 1360,-504 1406.79,-493.06 1459.66,-478.55 1496.87,-467.98"/>
<polygon fill="#a64fec" stroke="#a64fec" points="1220.56,-532.35 1209.92,-529.7 1215.64,-533.24 1210.72,-534.13 1210.72,-534.13 1210.72,-534.13 1215.64,-533.24 1211.52,-538.56 1220.56,-532.35 1220.56,-532.35"/>
<polygon fill="#a64fec" stroke="#a64fec" points="1497.31,-467.86 1508.16,-469.44 1502.12,-466.48 1506.93,-465.11 1506.93,-465.11 1506.93,-465.11 1502.12,-466.48 1505.69,-460.79 1497.31,-467.86 1497.31,-467.86"/>
</g>
<!-- AccountRecord -->
<g id="node9" class="node">
<title>AccountRecord</title>
<ellipse fill="none" stroke="black" cx="1644" cy="-648" rx="65.79" ry="18"/>
<text text-anchor="middle" x="1644" y="-644.3" font-family="Times,serif" font-size="14.00">AccountRecord</text>
</g>
<!-- ActionText::Embed -->
<g id="node10" class="node">
<title>ActionText::Embed</title>
<ellipse fill="none" stroke="black" cx="2564" cy="-648" rx="80.69" ry="18"/>
<text text-anchor="middle" x="2564" y="-644.3" font-family="Times,serif" font-size="14.00">ActionText::Embed</text>
</g>
<!-- Table&#45;&gt;Location -->
<g id="edge42" class="edge">
<title>Table&#45;&gt;Location</title>
<path fill="none" stroke="#980c9a" d="M1970.01,-443.22C1920.05,-431.99 1829.41,-412.73 1751,-402 1701.3,-395.2 1571.82,-404.41 1526,-384 1504.75,-374.53 1508.68,-358.66 1488,-348 1454.32,-330.64 911.43,-231.7 745.07,-201.65"/>
<polygon fill="#980c9a" stroke="#980c9a" points="1970.28,-443.28 1979.04,-449.88 1975.15,-444.38 1980.03,-445.49 1980.03,-445.49 1980.03,-445.49 1975.15,-444.38 1981.02,-441.1 1970.28,-443.28 1970.28,-443.28"/>
<polygon fill="#980c9a" stroke="#980c9a" points="744.97,-201.64 735.93,-195.43 740.05,-200.75 735.13,-199.86 735.13,-199.86 735.13,-199.86 740.05,-200.75 734.33,-204.29 744.97,-201.64 744.97,-201.64"/>
</g>
<!-- TableKind -->
<g id="node33" class="node">
<title>TableKind</title>
<ellipse fill="none" stroke="black" cx="2008" cy="-366" rx="48.19" ry="18"/>
<text text-anchor="middle" x="2008" y="-362.3" font-family="Times,serif" font-size="14.00">TableKind</text>
</g>
<!-- Table&#45;&gt;TableKind -->
<g id="edge43" class="edge">
<title>Table&#45;&gt;TableKind</title>
<path fill="none" stroke="#93132a" d="M2008,-424.73C2008,-415.06 2008,-404.17 2008,-394.48"/>
<polygon fill="#93132a" stroke="#93132a" points="2008,-424.8 2003.5,-434.8 2008,-429.8 2008,-434.8 2008,-434.8 2008,-434.8 2008,-429.8 2012.5,-434.8 2008,-424.8 2008,-424.8"/>
<polygon fill="#93132a" stroke="#93132a" points="2008,-394.18 2012.5,-384.18 2008,-389.18 2008,-384.18 2008,-384.18 2008,-384.18 2008,-389.18 2003.5,-384.18 2008,-394.18 2008,-394.18"/>
</g>
<!-- DisciplineTournamentPlan -->
<g id="node12" class="node">
<title>DisciplineTournamentPlan</title>
<ellipse fill="none" stroke="black" cx="2179" cy="-366" rx="105.08" ry="18"/>
<text text-anchor="middle" x="2179" y="-362.3" font-family="Times,serif" font-size="14.00">DisciplineTournamentPlan</text>
</g>
<!-- DisciplineTournamentPlan&#45;&gt;TournamentPlan -->
<g id="edge44" class="edge">
<title>DisciplineTournamentPlan&#45;&gt;TournamentPlan</title>
<path fill="none" stroke="#a0265b" d="M2237.5,-346.99C2286.2,-331.98 2354.97,-310.81 2402.06,-296.3"/>
<polygon fill="#a0265b" stroke="#a0265b" points="2237.26,-347.06 2226.38,-345.7 2232.49,-348.53 2227.71,-350 2227.71,-350 2227.71,-350 2232.49,-348.53 2229.03,-354.3 2237.26,-347.06 2237.26,-347.06"/>
<polygon fill="#a0265b" stroke="#a0265b" points="2402.21,-296.26 2413.09,-297.61 2406.99,-294.79 2411.77,-293.31 2411.77,-293.31 2411.77,-293.31 2406.99,-294.79 2410.45,-289.01 2402.21,-296.26 2402.21,-296.26"/>
</g>
<!-- DisciplineTournamentPlan&#45;&gt;Discipline -->
<g id="edge45" class="edge">
<title>DisciplineTournamentPlan&#45;&gt;Discipline</title>
<path fill="none" stroke="#520616" d="M2120.2,-347.02C2068.19,-331.12 1993.41,-308.26 1946.03,-293.77"/>
<polygon fill="#520616" stroke="#520616" points="2120.38,-347.08 2128.62,-354.3 2125.16,-348.54 2129.94,-350 2129.94,-350 2129.94,-350 2125.16,-348.54 2131.25,-345.7 2120.38,-347.08 2120.38,-347.08"/>
<polygon fill="#520616" stroke="#520616" points="1945.92,-293.73 1937.67,-286.51 1941.14,-292.27 1936.35,-290.81 1936.35,-290.81 1936.35,-290.81 1941.14,-292.27 1935.04,-295.11 1945.92,-293.73 1945.92,-293.73"/>
</g>
<!-- TournamentMonitor&#45;&gt;PaperTrail::Version -->
<g id="edge46" class="edge">
<title>TournamentMonitor&#45;&gt;PaperTrail::Version</title>
<path fill="none" stroke="#c317ac" d="M2767.41,-426.72C2756.37,-410.62 2745,-388.77 2745,-367 2745,-367 2745,-367 2745,-191 2745,-165.95 2736.9,-158.52 2719,-141 2712.72,-134.85 2705.15,-129.59 2697.32,-125.16"/>
<polygon fill="#c317ac" stroke="#c317ac" points="2767.57,-426.94 2769.8,-437.67 2770.51,-430.99 2773.44,-435.03 2773.44,-435.03 2773.44,-435.03 2770.51,-430.99 2777.09,-432.39 2767.57,-426.94 2767.57,-426.94"/>
<polygon fill="#c317ac" stroke="#c317ac" points="2697.29,-125.15 2690.52,-116.52 2692.86,-122.83 2688.43,-120.51 2688.43,-120.51 2688.43,-120.51 2692.86,-122.83 2686.34,-124.49 2697.29,-125.15 2697.29,-125.15"/>
<text text-anchor="middle" x="2768" y="-275.3" font-family="Times,serif" font-size="14.00">versions</text>
</g>
<!-- SeasonParticipation -->
<g id="node31" class="node">
<title>SeasonParticipation</title>
<ellipse fill="none" stroke="black" cx="884" cy="-192" rx="80.69" ry="18"/>
<text text-anchor="middle" x="884" y="-188.3" font-family="Times,serif" font-size="14.00">SeasonParticipation</text>
</g>
<!-- Season&#45;&gt;SeasonParticipation -->
<g id="edge47" class="edge">
<title>Season&#45;&gt;SeasonParticipation</title>
<path fill="none" stroke="#15a30e" d="M929.03,-253.76C920.73,-242.55 910.87,-229.26 902.5,-217.97"/>
<polygon fill="#15a30e" stroke="#15a30e" points="929.2,-253.98 931.53,-264.69 932.17,-258 935.15,-262.01 935.15,-262.01 935.15,-262.01 932.17,-258 938.77,-259.33 929.2,-253.98 929.2,-253.98"/>
<polygon fill="#15a30e" stroke="#15a30e" points="902.4,-217.82 900.06,-207.11 899.42,-213.81 896.44,-209.79 896.44,-209.79 896.44,-209.79 899.42,-213.81 892.83,-212.47 902.4,-217.82 902.4,-217.82"/>
</g>
<!-- PlayerRanking -->
<g id="node42" class="node">
<title>PlayerRanking</title>
<ellipse fill="none" stroke="black" cx="1046" cy="-192" rx="63.09" ry="18"/>
<text text-anchor="middle" x="1046" y="-188.3" font-family="Times,serif" font-size="14.00">PlayerRanking</text>
</g>
<!-- Season&#45;&gt;PlayerRanking -->
<g id="edge48" class="edge">
<title>Season&#45;&gt;PlayerRanking</title>
<path fill="none" stroke="#b76efe" d="M972.14,-256.41C986.52,-244.07 1004.54,-228.6 1019.18,-216.02"/>
<polygon fill="#b76efe" stroke="#b76efe" points="971.83,-256.68 961.31,-259.78 968.04,-259.94 964.24,-263.19 964.24,-263.19 964.24,-263.19 968.04,-259.94 967.18,-266.61 971.83,-256.68 971.83,-256.68"/>
<polygon fill="#b76efe" stroke="#b76efe" points="1019.34,-215.89 1029.86,-212.79 1023.13,-212.63 1026.93,-209.38 1026.93,-209.38 1026.93,-209.38 1023.13,-212.63 1024,-205.96 1019.34,-215.89 1019.34,-215.89"/>
</g>
<!-- Location&#45;&gt;Tournament -->
<g id="edge51" class="edge">
<title>Location&#45;&gt;Tournament</title>
<path fill="none" stroke="#0ef806" d="M644.29,-194.54C605.86,-197.61 553.63,-205.97 513,-228 485.92,-242.68 465,-247.2 465,-278 465,-541 465,-541 465,-541 465,-586.76 511.29,-577.47 555,-591 653.7,-621.55 957.61,-638.33 1090.59,-644.37"/>
<polygon fill="#0ef806" stroke="#0ef806" points="644.77,-194.5 655.06,-198.29 649.76,-194.15 654.74,-193.8 654.74,-193.8 654.74,-193.8 649.76,-194.15 654.43,-189.31 644.77,-194.5 644.77,-194.5"/>
<polygon fill="#0ef806" stroke="#0ef806" points="1090.64,-644.37 1100.43,-649.32 1095.64,-644.6 1100.63,-644.82 1100.63,-644.82 1100.63,-644.82 1095.64,-644.6 1100.83,-640.33 1090.64,-644.37 1090.64,-644.37"/>
</g>
<!-- Location&#45;&gt;Club -->
<g id="edge49" class="edge">
<title>Location&#45;&gt;Club</title>
<path fill="none" stroke="#58ef2d" d="M709.2,-218.95C714.31,-227.57 720.95,-236.59 729,-243 746.69,-257.08 770.52,-265.76 790.24,-270.96"/>
<polygon fill="#58ef2d" stroke="#58ef2d" points="709.06,-218.69 708.22,-207.75 706.66,-214.3 704.27,-209.91 704.27,-209.91 704.27,-209.91 706.66,-214.3 700.32,-212.06 709.06,-218.69 709.06,-218.69"/>
<polygon fill="#58ef2d" stroke="#58ef2d" points="790.42,-271 799.07,-277.74 795.27,-272.18 800.13,-273.36 800.13,-273.36 800.13,-273.36 795.27,-272.18 801.2,-268.99 790.42,-271 790.42,-271"/>
</g>
<!-- Location&#45;&gt;Organizer -->
<g id="edge50" class="edge">
<title>Location&#45;&gt;Organizer</title>
<path fill="none" stroke="#a99245" d="M697,-163.73C697,-154.06 697,-143.17 697,-133.48"/>
<polygon fill="#a99245" stroke="#a99245" points="697,-163.8 692.5,-173.8 697,-168.8 697,-173.8 697,-173.8 697,-173.8 697,-168.8 701.5,-173.8 697,-163.8 697,-163.8"/>
<polygon fill="#a99245" stroke="#a99245" points="697,-133.18 701.5,-123.18 697,-128.18 697,-123.18 697,-123.18 697,-123.18 697,-128.18 692.5,-123.18 697,-133.18 697,-133.18"/>
</g>
<!-- AccountUser&#45;&gt;User -->
<g id="edge52" class="edge">
<title>AccountUser&#45;&gt;User</title>
<path fill="none" stroke="#3a7b32" d="M1337.05,-41.3C1295.5,-76.21 1226.97,-146.35 1256,-210 1265.28,-230.35 1273.65,-233.71 1294,-243 1330.47,-259.64 1443.63,-270.57 1502.91,-275.31"/>
<polygon fill="#3a7b32" stroke="#3a7b32" points="1337.24,-41.15 1347.82,-38.28 1341.1,-37.97 1344.97,-34.8 1344.97,-34.8 1344.97,-34.8 1341.1,-37.97 1342.11,-31.32 1337.24,-41.15 1337.24,-41.15"/>
<polygon fill="#3a7b32" stroke="#3a7b32" points="1503.01,-275.31 1512.63,-280.58 1508,-275.7 1512.98,-276.09 1512.98,-276.09 1512.98,-276.09 1508,-275.7 1513.33,-271.6 1503.01,-275.31 1503.01,-275.31"/>
</g>
<!-- User::ConnectedAccount -->
<g id="node18" class="node">
<title>User::ConnectedAccount</title>
<ellipse fill="none" stroke="black" cx="3140" cy="-648" rx="99.38" ry="18"/>
<text text-anchor="middle" x="3140" y="-644.3" font-family="Times,serif" font-size="14.00">User::ConnectedAccount</text>
</g>
<!-- User::User -->
<g id="node53" class="node">
<title>User::User</title>
<ellipse fill="none" stroke="black" cx="3140" cy="-540" rx="48.99" ry="18"/>
<text text-anchor="middle" x="3140" y="-536.3" font-family="Times,serif" font-size="14.00">User::User</text>
</g>
<!-- User::ConnectedAccount&#45;&gt;User::User -->
<g id="edge53" class="edge">
<title>User::ConnectedAccount&#45;&gt;User::User</title>
<path fill="none" stroke="#c08bd1" d="M3140,-619.93C3140,-604.19 3140,-584.39 3140,-568.57"/>
<polygon fill="#c08bd1" stroke="#c08bd1" points="3140,-619.97 3135.5,-629.97 3140,-624.97 3140,-629.97 3140,-629.97 3140,-629.97 3140,-624.97 3144.5,-629.97 3140,-619.97 3140,-619.97"/>
<polygon fill="#c08bd1" stroke="#c08bd1" points="3140,-568.34 3144.5,-558.34 3140,-563.34 3140,-558.34 3140,-558.34 3140,-558.34 3140,-563.34 3135.5,-558.34 3140,-568.34 3140,-568.34"/>
</g>
<!-- Country -->
<g id="node19" class="node">
<title>Country</title>
<ellipse fill="none" stroke="black" cx="856" cy="-540" rx="39.79" ry="18"/>
<text text-anchor="middle" x="856" y="-536.3" font-family="Times,serif" font-size="14.00">Country</text>
</g>
<!-- Country&#45;&gt;Region -->
<g id="edge54" class="edge">
<title>Country&#45;&gt;Region</title>
<path fill="none" stroke="#01c3ed" d="M853.11,-511.73C852.08,-501.96 850.91,-490.94 849.88,-481.17"/>
<polygon fill="#01c3ed" stroke="#01c3ed" points="853.13,-511.85 849.7,-522.27 853.65,-516.83 854.18,-521.8 854.18,-521.8 854.18,-521.8 853.65,-516.83 858.65,-521.33 853.13,-511.85 853.13,-511.85"/>
<polygon fill="#01c3ed" stroke="#01c3ed" points="849.87,-481.12 853.29,-470.7 849.35,-476.15 848.82,-471.18 848.82,-471.18 848.82,-471.18 849.35,-476.15 844.34,-471.65 849.87,-481.12 849.87,-481.12"/>
</g>
<!-- Player -->
<g id="node20" class="node">
<title>Player</title>
<ellipse fill="none" stroke="black" cx="1446" cy="-366" rx="33.29" ry="18"/>
<text text-anchor="middle" x="1446" y="-362.3" font-family="Times,serif" font-size="14.00">Player</text>
</g>
<!-- GameParticipation -->
<g id="node23" class="node">
<title>GameParticipation</title>
<ellipse fill="none" stroke="black" cx="2252" cy="-279" rx="77.19" ry="18"/>
<text text-anchor="middle" x="2252" y="-275.3" font-family="Times,serif" font-size="14.00">GameParticipation</text>
</g>
<!-- Player&#45;&gt;GameParticipation -->
<g id="edge56" class="edge">
<title>Player&#45;&gt;GameParticipation</title>
<path fill="none" stroke="#712ab2" d="M1485.74,-355.49C1498.53,-352.72 1512.81,-349.92 1526,-348 1808.37,-306.92 1883.34,-336.07 2166,-297 2172.79,-296.06 2179.85,-294.93 2186.87,-293.7"/>
<polygon fill="#712ab2" stroke="#712ab2" points="1485.61,-355.52 1474.87,-353.3 1480.73,-356.61 1475.85,-357.69 1475.85,-357.69 1475.85,-357.69 1480.73,-356.61 1476.82,-362.09 1485.61,-355.52 1485.61,-355.52"/>
<polygon fill="#712ab2" stroke="#712ab2" points="2187.27,-293.62 2197.91,-296.26 2192.19,-292.73 2197.11,-291.83 2197.11,-291.83 2197.11,-291.83 2192.19,-292.73 2196.3,-287.41 2187.27,-293.62 2187.27,-293.62"/>
</g>
<!-- Player&#45;&gt;Club -->
<g id="edge55" class="edge">
<title>Player&#45;&gt;Club</title>
<path fill="none" stroke="#c80ff9" d="M1402.78,-363.04C1329.75,-359.31 1177.41,-349.75 1050,-330 983.4,-319.68 967.75,-311.78 902,-297 889.28,-294.14 875.35,-290.99 862.98,-288.18"/>
<polygon fill="#c80ff9" stroke="#c80ff9" points="1402.98,-363.05 1412.74,-368.04 1407.97,-363.3 1412.97,-363.55 1412.97,-363.55 1412.97,-363.55 1407.97,-363.3 1413.19,-359.05 1402.98,-363.05 1402.98,-363.05"/>
<polygon fill="#c80ff9" stroke="#c80ff9" points="862.78,-288.14 854.02,-281.53 857.9,-287.03 853.03,-285.92 853.03,-285.92 853.03,-285.92 857.9,-287.03 852.03,-290.31 862.78,-288.14 862.78,-288.14"/>
</g>
<!-- Player&#45;&gt;SeasonParticipation -->
<g id="edge57" class="edge">
<title>Player&#45;&gt;SeasonParticipation</title>
<path fill="none" stroke="#5b8ee9" d="M1405.97,-355.73C1354.95,-343.63 1264.23,-321.12 1188,-297 1103.94,-270.4 1085.65,-255.89 1002,-228 982.58,-221.53 961.17,-215 941.98,-209.36"/>
<polygon fill="#5b8ee9" stroke="#5b8ee9" points="1406.2,-355.79 1414.9,-362.46 1411.07,-356.94 1415.93,-358.08 1415.93,-358.08 1415.93,-358.08 1411.07,-356.94 1416.97,-353.7 1406.2,-355.79 1406.2,-355.79"/>
<polygon fill="#5b8ee9" stroke="#5b8ee9" points="941.77,-209.3 933.43,-202.18 936.97,-207.9 932.17,-206.5 932.17,-206.5 932.17,-206.5 936.97,-207.9 930.91,-210.82 941.77,-209.3 941.77,-209.3"/>
</g>
<!-- Player&#45;&gt;PartyGame -->
<g id="edge60" class="edge">
<title>Player&#45;&gt;PartyGame</title>
<path fill="none" stroke="#b16189" d="M1403.88,-372.4C1365.72,-378.97 1318.49,-392.39 1340,-417 1359.62,-439.46 1443.67,-429.57 1473,-435 1480.21,-436.34 1487.78,-437.92 1495.19,-439.58"/>
<polygon fill="#b16189" stroke="#b16189" points="1403.97,-372.38 1414.56,-375.24 1408.91,-371.59 1413.84,-370.8 1413.84,-370.8 1413.84,-370.8 1408.91,-371.59 1413.13,-366.35 1403.97,-372.38 1403.97,-372.38"/>
<polygon fill="#b16189" stroke="#b16189" points="1495.41,-439.63 1504.15,-446.25 1500.29,-440.74 1505.16,-441.86 1505.16,-441.86 1505.16,-441.86 1500.29,-440.74 1506.16,-437.48 1495.41,-439.63 1495.41,-439.63"/>
<text text-anchor="middle" x="1381.5" y="-405.8" font-family="Times,serif" font-size="14.00">party_a_games</text>
</g>
<!-- Player&#45;&gt;PartyGame -->
<g id="edge61" class="edge">
<title>Player&#45;&gt;PartyGame</title>
<path fill="none" stroke="#40a585" d="M1440.32,-394.3C1440.1,-402.23 1441.4,-410.49 1446,-417 1452.07,-425.58 1472.73,-433.53 1493.63,-439.67"/>
<polygon fill="#40a585" stroke="#40a585" points="1440.33,-394.19 1445.82,-384.7 1440.84,-389.22 1441.34,-384.24 1441.34,-384.24 1441.34,-384.24 1440.84,-389.22 1436.87,-383.79 1440.33,-394.19 1440.33,-394.19"/>
<polygon fill="#40a585" stroke="#40a585" points="1493.89,-439.75 1502.3,-446.78 1498.7,-441.1 1503.51,-442.45 1503.51,-442.45 1503.51,-442.45 1498.7,-441.1 1504.73,-438.12 1493.89,-439.75 1493.89,-439.75"/>
<text text-anchor="middle" x="1488" y="-405.8" font-family="Times,serif" font-size="14.00">party_b_games</text>
</g>
<!-- Player&#45;&gt;Seeding -->
<g id="edge59" class="edge">
<title>Player&#45;&gt;Seeding</title>
<path fill="none" stroke="#acd442" d="M1485.39,-354.82C1509.22,-348.36 1540.1,-339.45 1567,-330 1661.92,-296.63 1685.1,-286.14 1776,-243 1788.75,-236.95 1790.4,-231.8 1804,-228 1948.45,-187.62 1993.48,-237.13 2141,-210 2145.51,-209.17 2150.16,-208.07 2154.75,-206.82"/>
<polygon fill="#acd442" stroke="#acd442" points="1485.29,-354.84 1474.47,-353.08 1480.46,-356.14 1475.63,-357.43 1475.63,-357.43 1475.63,-357.43 1480.46,-356.14 1476.8,-361.78 1485.29,-354.84 1485.29,-354.84"/>
<polygon fill="#acd442" stroke="#acd442" points="2155.04,-206.73 2165.91,-208.21 2159.84,-205.32 2164.63,-203.9 2164.63,-203.9 2164.63,-203.9 2159.84,-205.32 2163.36,-199.58 2155.04,-206.73 2155.04,-206.73"/>
</g>
<!-- Player&#45;&gt;PlayerRanking -->
<g id="edge58" class="edge">
<title>Player&#45;&gt;PlayerRanking</title>
<path fill="none" stroke="#564ddf" d="M1409.79,-351.3C1353.8,-329.82 1243.16,-286.2 1152,-243 1139.24,-236.95 1136.67,-234.23 1124,-228 1112.66,-222.43 1100.23,-216.69 1088.69,-211.51"/>
<polygon fill="#564ddf" stroke="#564ddf" points="1409.92,-351.35 1417.66,-359.13 1414.59,-353.14 1419.26,-354.92 1419.26,-354.92 1419.26,-354.92 1414.59,-353.14 1420.87,-350.72 1409.92,-351.35 1409.92,-351.35"/>
<polygon fill="#564ddf" stroke="#564ddf" points="1088.39,-211.38 1081.09,-203.2 1083.83,-209.34 1079.26,-207.31 1079.26,-207.31 1079.26,-207.31 1083.83,-209.34 1077.43,-211.42 1088.39,-211.38 1088.39,-211.38"/>
</g>
<!-- Player&#45;&gt;User -->
<g id="edge62" class="edge">
<title>Player&#45;&gt;User</title>
<path fill="none" stroke="#0336a5" d="M1469.81,-343.47C1484.27,-330.39 1502.63,-313.79 1516.95,-300.84"/>
<polygon fill="#0336a5" stroke="#0336a5" points="1469.79,-343.49 1459.36,-346.86 1466.08,-346.84 1462.37,-350.19 1462.37,-350.19 1462.37,-350.19 1466.08,-346.84 1465.39,-353.53 1469.79,-343.49 1469.79,-343.49"/>
<polygon fill="#0336a5" stroke="#0336a5" points="1517.02,-300.78 1527.46,-297.41 1520.73,-297.43 1524.44,-294.07 1524.44,-294.07 1524.44,-294.07 1520.73,-297.43 1521.42,-290.73 1517.02,-300.78 1517.02,-300.78"/>
<text text-anchor="middle" x="1531" y="-318.8" font-family="Times,serif" font-size="14.00">admin_user</text>
</g>
<!-- DebugInfo -->
<g id="node21" class="node">
<title>DebugInfo</title>
<ellipse fill="none" stroke="black" cx="2822" cy="-192" rx="48.99" ry="18"/>
<text text-anchor="middle" x="2822" y="-188.3" font-family="Times,serif" font-size="14.00">DebugInfo</text>
</g>
<!-- DebugInfo&#45;&gt;PaperTrail::Version -->
<g id="edge63" class="edge">
<title>DebugInfo&#45;&gt;PaperTrail::Version</title>
<path fill="none" stroke="#9856d0" d="M2797.69,-168.26C2786.56,-158.79 2772.79,-148.32 2759,-141 2744.07,-133.07 2727.05,-126.59 2710.9,-121.45"/>
<polygon fill="#9856d0" stroke="#9856d0" points="2797.77,-168.33 2802.33,-178.3 2801.53,-171.62 2805.29,-174.92 2805.29,-174.92 2805.29,-174.92 2801.53,-171.62 2808.26,-171.53 2797.77,-168.33 2797.77,-168.33"/>
<polygon fill="#9856d0" stroke="#9856d0" points="2710.54,-121.35 2702.29,-114.12 2705.76,-119.89 2700.98,-118.43 2700.98,-118.43 2700.98,-118.43 2705.76,-119.89 2699.66,-122.73 2710.54,-121.35 2710.54,-121.35"/>
<text text-anchor="middle" x="2805" y="-144.8" font-family="Times,serif" font-size="14.00">versions</text>
</g>
<!-- Current -->
<g id="node22" class="node">
<title>Current</title>
<polygon fill="none" stroke="black" points="3315,-666 3257,-666 3257,-630 3315,-630 3315,-666"/>
<text text-anchor="middle" x="3286" y="-644.3" font-family="Times,serif" font-size="14.00">Current</text>
</g>
<!-- GameParticipation&#45;&gt;Game -->
<g id="edge64" class="edge">
<title>GameParticipation&#45;&gt;Game</title>
<path fill="none" stroke="#96fe06" d="M2320.86,-265.24C2392.26,-251.9 2507.07,-230.14 2606,-210 2618.91,-207.37 2632.98,-204.38 2645.62,-201.65"/>
<polygon fill="#96fe06" stroke="#96fe06" points="2320.48,-265.31 2309.82,-262.72 2315.56,-266.23 2310.65,-267.15 2310.65,-267.15 2310.65,-267.15 2315.56,-266.23 2311.47,-271.57 2320.48,-265.31 2320.48,-265.31"/>
<polygon fill="#96fe06" stroke="#96fe06" points="2645.62,-201.65 2656.35,-203.93 2650.51,-200.59 2655.4,-199.53 2655.4,-199.53 2655.4,-199.53 2650.51,-200.59 2654.44,-195.14 2645.62,-201.65 2645.62,-201.65"/>
</g>
<!-- GameParticipation&#45;&gt;PaperTrail::Version -->
<g id="edge65" class="edge">
<title>GameParticipation&#45;&gt;PaperTrail::Version</title>
<path fill="none" stroke="#a58073" d="M2259.18,-251.4C2266.66,-228.21 2280.51,-195.08 2303,-174 2339.94,-139.38 2473.83,-121.07 2563.54,-112.48"/>
<polygon fill="#a58073" stroke="#a58073" points="2259.18,-251.4 2251.96,-259.66 2257.72,-256.19 2256.26,-260.97 2256.26,-260.97 2256.26,-260.97 2257.72,-256.19 2260.57,-262.28 2259.18,-251.4 2259.18,-251.4"/>
<polygon fill="#a58073" stroke="#a58073" points="2563.75,-112.46 2574.12,-116.01 2568.73,-111.99 2573.7,-111.53 2573.7,-111.53 2573.7,-111.53 2568.73,-111.99 2573.28,-107.05 2563.75,-112.46 2563.75,-112.46"/>
<text text-anchor="middle" x="2326" y="-188.3" font-family="Times,serif" font-size="14.00">versions</text>
</g>
<!-- Setting&#45;&gt;Region -->
<g id="edge66" class="edge">
<title>Setting&#45;&gt;Region</title>
<path fill="none" stroke="#b6bab9" d="M716.99,-520.69C733.72,-510.99 754.82,-499.03 774,-489 786.19,-482.63 799.72,-476.01 811.79,-470.27"/>
<polygon fill="#b6bab9" stroke="#b6bab9" points="716.83,-520.79 705.92,-521.94 712.51,-523.31 708.19,-525.82 708.19,-525.82 708.19,-525.82 712.51,-523.31 710.45,-529.71 716.83,-520.79 716.83,-520.79"/>
<polygon fill="#b6bab9" stroke="#b6bab9" points="812.06,-470.14 823.03,-469.95 816.59,-468.01 821.11,-465.88 821.11,-465.88 821.11,-465.88 816.59,-468.01 819.19,-461.81 812.06,-470.14 812.06,-470.14"/>
</g>
<!-- Setting&#45;&gt;Club -->
<g id="edge67" class="edge">
<title>Setting&#45;&gt;Club</title>
<path fill="none" stroke="#904373" d="M685.03,-511.57C684.21,-490.59 682.86,-460.95 681,-435 677.18,-381.62 637.55,-356.78 671,-315 685.55,-296.82 748.04,-287.44 789.38,-283.13"/>
<polygon fill="#904373" stroke="#904373" points="685.04,-511.69 680.92,-521.86 685.23,-516.69 685.42,-521.69 685.42,-521.69 685.42,-521.69 685.23,-516.69 689.91,-521.52 685.04,-511.69 685.04,-511.69"/>
<polygon fill="#904373" stroke="#904373" points="789.44,-283.12 799.83,-286.62 794.41,-282.63 799.39,-282.14 799.39,-282.14 799.39,-282.14 794.41,-282.63 798.95,-277.66 789.44,-283.12 789.44,-283.12"/>
</g>
<!-- Team&#45;&gt;GameParticipation -->
<g id="edge69" class="edge">
<title>Team&#45;&gt;GameParticipation</title>
<path fill="none" stroke="#195e52" d="M1538.79,-537.03C1630.77,-531.94 1860.94,-515.44 2048,-471 2160.42,-444.29 2226.35,-478.39 2293,-384 2310.27,-359.54 2291.83,-326.79 2274.45,-304.62"/>
<polygon fill="#195e52" stroke="#195e52" points="1538.51,-537.05 1528.28,-533.09 1533.52,-537.32 1528.52,-537.59 1528.52,-537.59 1528.52,-537.59 1533.52,-537.32 1528.77,-542.08 1538.51,-537.05 1538.51,-537.05"/>
<polygon fill="#195e52" stroke="#195e52" points="2274.27,-304.41 2271.39,-293.82 2271.1,-300.55 2267.92,-296.68 2267.92,-296.68 2267.92,-296.68 2271.1,-300.55 2264.45,-299.54 2274.27,-304.41 2274.27,-304.41"/>
</g>
<!-- Team&#45;&gt;Club -->
<g id="edge68" class="edge">
<title>Team&#45;&gt;Club</title>
<path fill="none" stroke="#3f1fad" d="M1462.78,-526.79C1445,-520.4 1423.18,-512.21 1404,-504 1339.49,-476.39 1325.82,-464.16 1262,-435 1243.53,-426.56 1238.35,-425.71 1220,-417 1160.2,-388.61 1150.44,-369.98 1088,-348 1049.11,-334.31 1037.04,-339.83 997,-330 949.48,-318.34 895.39,-301.87 861.23,-291.06"/>
<polygon fill="#3f1fad" stroke="#3f1fad" points="1462.78,-526.79 1470.7,-534.39 1467.49,-528.47 1472.2,-530.15 1472.2,-530.15 1472.2,-530.15 1467.49,-528.47 1473.71,-525.91 1462.78,-526.79 1462.78,-526.79"/>
<polygon fill="#3f1fad" stroke="#3f1fad" points="860.83,-290.94 852.67,-283.62 856.07,-289.42 851.3,-287.91 851.3,-287.91 851.3,-287.91 856.07,-289.42 849.94,-292.19 860.83,-290.94 860.83,-290.94"/>
</g>
<!-- Team&#45;&gt;SeasonParticipation -->
<g id="edge70" class="edge">
<title>Team&#45;&gt;SeasonParticipation</title>
<path fill="none" stroke="#35baad" d="M1467.81,-522.02C1431.05,-501.37 1367.05,-465.48 1312,-435 1270.76,-412.16 1260.14,-407.01 1219,-384 1110.06,-323.08 982.13,-249.6 920.64,-214.15"/>
<polygon fill="#35baad" stroke="#35baad" points="1467.83,-522.03 1474.35,-530.85 1472.19,-524.48 1476.55,-526.93 1476.55,-526.93 1476.55,-526.93 1472.19,-524.48 1478.76,-523.01 1467.83,-522.03 1467.83,-522.03"/>
<polygon fill="#35baad" stroke="#35baad" points="920.37,-214 913.95,-205.1 916.04,-211.5 911.71,-209 911.71,-209 911.71,-209 916.04,-211.5 909.46,-212.9 920.37,-214 920.37,-214"/>
</g>
<!-- Team&#45;&gt;PartyGame -->
<g id="edge73" class="edge">
<title>Team&#45;&gt;PartyGame</title>
<path fill="none" stroke="#1fc790" d="M1494.25,-511.82C1494.3,-504.1 1495.48,-495.92 1499,-489 1501.68,-483.73 1505.56,-479.03 1509.96,-474.92"/>
<polygon fill="#1fc790" stroke="#1fc790" points="1494.26,-511.91 1490.28,-522.13 1494.51,-516.91 1494.77,-521.9 1494.77,-521.9 1494.77,-521.9 1494.51,-516.91 1499.27,-521.67 1494.26,-511.91 1494.26,-511.91"/>
<polygon fill="#1fc790" stroke="#1fc790" points="1509.97,-474.9 1520.56,-472.03 1513.84,-471.73 1517.7,-468.55 1517.7,-468.55 1517.7,-468.55 1513.84,-471.73 1514.85,-465.08 1509.97,-474.9 1509.97,-474.9"/>
<text text-anchor="middle" x="1540.5" y="-492.8" font-family="Times,serif" font-size="14.00">party_a_games</text>
</g>
<!-- Team&#45;&gt;PartyGame -->
<g id="edge74" class="edge">
<title>Team&#45;&gt;PartyGame</title>
<path fill="none" stroke="#ca0311" d="M1537.88,-532.4C1554.43,-527.48 1572.06,-518.91 1582,-504 1588.22,-494.66 1583.3,-484.67 1575.25,-476.09"/>
<polygon fill="#ca0311" stroke="#ca0311" points="1537.47,-532.51 1526.67,-530.66 1532.63,-533.76 1527.79,-535.02 1527.79,-535.02 1527.79,-535.02 1532.63,-533.76 1528.92,-539.37 1537.47,-532.51 1537.47,-532.51"/>
<polygon fill="#ca0311" stroke="#ca0311" points="1575.25,-476.08 1571,-465.97 1571.59,-472.67 1567.93,-469.26 1567.93,-469.26 1567.93,-469.26 1571.59,-472.67 1564.86,-472.55 1575.25,-476.08 1575.25,-476.08"/>
<text text-anchor="middle" x="1627" y="-492.8" font-family="Times,serif" font-size="14.00">party_b_games</text>
</g>
<!-- Team&#45;&gt;Seeding -->
<g id="edge72" class="edge">
<title>Team&#45;&gt;Seeding</title>
<path fill="none" stroke="#bcef4d" d="M1538.66,-537.14C1594.78,-533.82 1692.21,-525.13 1720,-504 1780.64,-457.9 1755.06,-415.17 1791,-348 1812.47,-307.87 1811.11,-291.37 1845,-261 1870.32,-238.31 1881.16,-236.78 1914,-228 2015.63,-200.84 2047.4,-233.2 2150,-210 2152.29,-209.48 2154.62,-208.87 2156.95,-208.18"/>
<polygon fill="#bcef4d" stroke="#bcef4d" points="1538.34,-537.16 1528.1,-533.22 1533.34,-537.44 1528.35,-537.72 1528.35,-537.72 1528.35,-537.72 1533.34,-537.44 1528.6,-542.21 1538.34,-537.16 1538.34,-537.16"/>
<polygon fill="#bcef4d" stroke="#bcef4d" points="2156.95,-208.18 2167.86,-209.33 2161.7,-206.62 2166.45,-205.05 2166.45,-205.05 2166.45,-205.05 2161.7,-206.62 2165.04,-200.78 2156.95,-208.18 2156.95,-208.18"/>
</g>
<!-- Team&#45;&gt;PlayerRanking -->
<g id="edge71" class="edge">
<title>Team&#45;&gt;PlayerRanking</title>
<path fill="none" stroke="#8a2552" d="M1482.72,-514.3C1466.6,-490.35 1438.98,-454.82 1406,-435 1376.62,-417.34 1361.85,-431.94 1331,-417 1221.27,-363.88 1114.42,-262.89 1068.92,-216.89"/>
<polygon fill="#8a2552" stroke="#8a2552" points="1482.84,-514.49 1484.56,-525.32 1485.58,-518.67 1488.32,-522.85 1488.32,-522.85 1488.32,-522.85 1485.58,-518.67 1492.09,-520.39 1482.84,-514.49 1482.84,-514.49"/>
<polygon fill="#8a2552" stroke="#8a2552" points="1068.9,-216.88 1065.11,-206.59 1065.4,-213.31 1061.9,-209.74 1061.9,-209.74 1061.9,-209.74 1065.4,-213.31 1058.69,-212.89 1068.9,-216.88 1068.9,-216.88"/>
</g>
<!-- Team&#45;&gt;User -->
<g id="edge75" class="edge">
<title>Team&#45;&gt;User</title>
<path fill="none" stroke="#fde178" d="M1538.6,-536.68C1584.89,-533.08 1656.34,-524.33 1673,-504 1700.16,-470.87 1848.94,-655.56 1636,-348 1619.7,-324.45 1592.44,-306.29 1571.13,-294.69"/>
<polygon fill="#fde178" stroke="#fde178" points="1538.53,-536.68 1528.23,-532.92 1533.55,-537.05 1528.56,-537.41 1528.56,-537.41 1528.56,-537.41 1533.55,-537.05 1528.89,-541.9 1538.53,-536.68 1538.53,-536.68"/>
<polygon fill="#fde178" stroke="#fde178" points="1570.98,-294.61 1564.2,-285.99 1566.55,-292.29 1562.12,-289.97 1562.12,-289.97 1562.12,-289.97 1566.55,-292.29 1560.03,-293.96 1570.98,-294.61 1570.98,-294.61"/>
<text text-anchor="middle" x="1715" y="-405.8" font-family="Times,serif" font-size="14.00">admin_user</text>
</g>
<!-- Notification -->
<g id="node26" class="node">
<title>Notification</title>
<ellipse fill="none" stroke="black" cx="2002" cy="-192" rx="53.09" ry="18"/>
<text text-anchor="middle" x="2002" y="-188.3" font-family="Times,serif" font-size="14.00">Notification</text>
</g>
<!-- Notification&#45;&gt;Account -->
<g id="edge77" class="edge">
<title>Notification&#45;&gt;Account</title>
<path fill="none" stroke="#a643b7" d="M1959.02,-174.13C1928.94,-163 1887.58,-149.05 1850,-141 1750.4,-119.67 1631.25,-111.16 1565.26,-107.9"/>
<polygon fill="#a643b7" stroke="#a643b7" points="1959.4,-174.27 1967.18,-181.99 1964.08,-176.02 1968.76,-177.78 1968.76,-177.78 1968.76,-177.78 1964.08,-176.02 1970.34,-173.56 1959.4,-174.27 1959.4,-174.27"/>
<polygon fill="#a643b7" stroke="#a643b7" points="1565.13,-107.9 1555.35,-102.93 1560.13,-107.66 1555.14,-107.43 1555.14,-107.43 1555.14,-107.43 1560.13,-107.66 1554.93,-111.92 1565.13,-107.9 1565.13,-107.9"/>
</g>
<!-- Recipient -->
<g id="node54" class="node">
<title>Recipient</title>
<ellipse fill="none" stroke="black" cx="2002" cy="-105" rx="44.39" ry="18"/>
<text text-anchor="middle" x="2002" y="-101.3" font-family="Times,serif" font-size="14.00">Recipient</text>
</g>
<!-- Notification&#45;&gt;Recipient -->
<g id="edge76" class="edge">
<title>Notification&#45;&gt;Recipient</title>
<path fill="none" stroke="#3d8c18" d="M2002,-163.73C2002,-154.06 2002,-143.17 2002,-133.48"/>
<polygon fill="#3d8c18" stroke="#3d8c18" points="2002,-163.8 1997.5,-173.8 2002,-168.8 2002,-173.8 2002,-173.8 2002,-173.8 2002,-168.8 2006.5,-173.8 2002,-163.8 2002,-163.8"/>
<polygon fill="#3d8c18" stroke="#3d8c18" points="2002,-133.18 2006.5,-123.18 2002,-128.18 2002,-123.18 2002,-123.18 2002,-123.18 2002,-128.18 1997.5,-123.18 2002,-133.18 2002,-133.18"/>
</g>
<!-- League&#45;&gt;Season -->
<g id="edge80" class="edge">
<title>League&#45;&gt;Season</title>
<path fill="none" stroke="#03510d" d="M980.25,-337.91C978.15,-330.3 975.43,-322.15 972,-315 970.27,-311.39 968.17,-307.76 965.93,-304.27"/>
<polygon fill="#03510d" stroke="#03510d" points="980.3,-338.11 978.37,-348.9 981.52,-342.96 982.74,-347.8 982.74,-347.8 982.74,-347.8 981.52,-342.96 987.1,-346.71 980.3,-338.11 980.3,-338.11"/>
<polygon fill="#03510d" stroke="#03510d" points="965.89,-304.22 963.9,-293.44 963.05,-300.11 960.2,-296 960.2,-296 960.2,-296 963.05,-300.11 956.5,-298.56 965.89,-304.22 965.89,-304.22"/>
</g>
<!-- League&#45;&gt;Discipline -->
<g id="edge79" class="edge">
<title>League&#45;&gt;Discipline</title>
<path fill="none" stroke="#90ca5f" d="M1031.42,-360.19C1118.94,-350.97 1317.08,-330.38 1484,-315 1613.3,-303.08 1765.31,-290.75 1845.3,-284.38"/>
<polygon fill="#90ca5f" stroke="#90ca5f" points="1031.25,-360.21 1020.83,-356.78 1026.28,-360.73 1021.3,-361.26 1021.3,-361.26 1021.3,-361.26 1026.28,-360.73 1021.78,-365.73 1031.25,-360.21 1031.25,-360.21"/>
<polygon fill="#90ca5f" stroke="#90ca5f" points="1845.66,-284.36 1855.98,-288.05 1850.64,-283.96 1855.63,-283.56 1855.63,-283.56 1855.63,-283.56 1850.64,-283.96 1855.27,-279.08 1845.66,-284.36 1845.66,-284.36"/>
</g>
<!-- League&#45;&gt;Organizer -->
<g id="edge78" class="edge">
<title>League&#45;&gt;Organizer</title>
<path fill="none" stroke="#6c5e6a" d="M955.9,-345.42C938.57,-333.06 917.27,-315.89 902,-297 880.38,-270.26 893.92,-249.4 867,-228 840.84,-207.21 822.82,-226.92 794,-210 760.25,-190.18 731.1,-155.02 713.8,-131.13"/>
<polygon fill="#6c5e6a" stroke="#6c5e6a" points="956.34,-345.72 961.98,-355.13 960.45,-348.58 964.55,-351.43 964.55,-351.43 964.55,-351.43 960.45,-348.58 967.12,-347.74 956.34,-345.72 956.34,-345.72"/>
<polygon fill="#6c5e6a" stroke="#6c5e6a" points="713.74,-131.05 711.65,-120.29 710.86,-126.97 707.97,-122.88 707.97,-122.88 707.97,-122.88 710.86,-126.97 704.3,-125.48 713.74,-131.05 713.74,-131.05"/>
</g>
<!-- Region&#45;&gt;Tournament -->
<g id="edge84" class="edge">
<title>Region&#45;&gt;Tournament</title>
<path fill="none" stroke="#100641" d="M867.72,-477.91C891.29,-504.72 928.75,-546.01 946,-558 995.78,-592.58 1061.13,-617.82 1105.19,-632.4"/>
<polygon fill="#100641" stroke="#100641" points="867.47,-477.63 864.27,-467.14 864.18,-473.87 860.89,-470.11 860.89,-470.11 860.89,-470.11 864.18,-473.87 857.5,-473.07 867.47,-477.63 867.47,-477.63"/>
<polygon fill="#100641" stroke="#100641" points="1105.3,-632.44 1113.42,-639.81 1110.05,-633.98 1114.81,-635.53 1114.81,-635.53 1114.81,-635.53 1110.05,-633.98 1116.2,-631.25 1105.3,-632.44 1105.3,-632.44"/>
<text text-anchor="middle" x="1010" y="-536.3" font-family="Times,serif" font-size="14.00">organized_tournaments</text>
</g>
<!-- Region&#45;&gt;Location -->
<g id="edge83" class="edge">
<title>Region&#45;&gt;Location</title>
<path fill="none" stroke="#06db5c" d="M815.01,-433.62C782.41,-412.97 733.42,-376.22 710,-330 692.38,-295.23 691.94,-249.13 693.94,-220.27"/>
<polygon fill="#06db5c" stroke="#06db5c" points="815.22,-433.75 821.37,-442.84 819.48,-436.38 823.73,-439.01 823.73,-439.01 823.73,-439.01 819.48,-436.38 826.1,-435.18 815.22,-433.75 815.22,-433.75"/>
<polygon fill="#06db5c" stroke="#06db5c" points="693.95,-220.07 699.28,-210.49 694.37,-215.09 694.79,-210.11 694.79,-210.11 694.79,-210.11 694.37,-215.09 690.31,-209.73 693.95,-220.07 693.95,-220.07"/>
<text text-anchor="middle" x="769" y="-318.8" font-family="Times,serif" font-size="14.00">locations</text>
</g>
<!-- Region&#45;&gt;League -->
<g id="edge85" class="edge">
<title>Region&#45;&gt;League</title>
<path fill="none" stroke="#bedec4" d="M847.71,-424.6C849.22,-416.44 852.23,-408.07 858,-402 878.83,-380.09 911.94,-371.45 939.27,-368.22"/>
<polygon fill="#bedec4" stroke="#bedec4" points="847.7,-424.71 842.05,-434.11 847.11,-429.67 846.52,-434.64 846.52,-434.64 846.52,-434.64 847.11,-429.67 850.99,-435.17 847.7,-424.71 847.7,-424.71"/>
<polygon fill="#bedec4" stroke="#bedec4" points="939.47,-368.21 949.86,-371.72 944.45,-367.72 949.42,-367.24 949.42,-367.24 949.42,-367.24 944.45,-367.72 948.99,-362.76 939.47,-368.21 939.47,-368.21"/>
<text text-anchor="middle" x="908.5" y="-405.8" font-family="Times,serif" font-size="14.00">organized_leagues</text>
</g>
<!-- Region&#45;&gt;League -->
<g id="edge86" class="edge">
<title>Region&#45;&gt;League</title>
<path fill="none" stroke="#63a2d5" d="M885.53,-438.71C889.39,-437.43 893.27,-436.17 897,-435 924.37,-426.38 936.67,-435.02 959,-417 966.59,-410.88 972.34,-402.03 976.54,-393.48"/>
<polygon fill="#63a2d5" stroke="#63a2d5" points="885.49,-438.72 874.58,-437.62 880.75,-440.3 876.01,-441.89 876.01,-441.89 876.01,-441.89 880.75,-440.3 877.44,-446.16 885.49,-438.72 885.49,-438.72"/>
<polygon fill="#63a2d5" stroke="#63a2d5" points="976.63,-393.26 984.77,-385.91 978.64,-388.68 980.65,-384.1 980.65,-384.1 980.65,-384.1 978.64,-388.68 976.52,-382.3 976.63,-393.26 976.63,-393.26"/>
</g>
<!-- Region&#45;&gt;Club -->
<g id="edge81" class="edge">
<title>Region&#45;&gt;Club</title>
<path fill="none" stroke="#c183e4" d="M843.82,-424.64C840.07,-392.41 833.88,-339.18 830.15,-307.07"/>
<polygon fill="#c183e4" stroke="#c183e4" points="843.85,-424.95 840.54,-435.4 844.43,-429.91 845.01,-434.88 845.01,-434.88 845.01,-434.88 844.43,-429.91 849.48,-434.36 843.85,-424.95 843.85,-424.95"/>
<polygon fill="#c183e4" stroke="#c183e4" points="830.14,-306.98 833.45,-296.53 829.56,-302.02 828.98,-297.05 828.98,-297.05 828.98,-297.05 829.56,-302.02 824.51,-297.57 830.14,-306.98 830.14,-306.98"/>
</g>
<!-- Region&#45;&gt;PlayerRanking -->
<g id="edge82" class="edge">
<title>Region&#45;&gt;PlayerRanking</title>
<path fill="none" stroke="#482af2" d="M890.91,-444.11C917.41,-438.46 951.46,-429.6 980,-417 1004.7,-406.09 1017.18,-407.19 1031,-384 1061.58,-332.68 1056.64,-259.35 1050.96,-220.16"/>
<polygon fill="#482af2" stroke="#482af2" points="890.58,-444.18 879.87,-441.78 885.68,-445.18 880.78,-446.19 880.78,-446.19 880.78,-446.19 885.68,-445.18 881.69,-450.6 890.58,-444.18 890.58,-444.18"/>
<polygon fill="#482af2" stroke="#482af2" points="1050.92,-219.94 1053.81,-209.36 1050.15,-215 1049.37,-210.06 1049.37,-210.06 1049.37,-210.06 1050.15,-215 1044.92,-210.76 1050.92,-219.94 1050.92,-219.94"/>
</g>
<!-- Club&#45;&gt;Tournament -->
<g id="edge89" class="edge">
<title>Club&#45;&gt;Tournament</title>
<path fill="none" stroke="#3e0d7a" d="M789.48,-283.63C745.93,-288.55 677.58,-298.63 658,-315 620.52,-346.34 653.61,-384.65 617,-417 593.57,-437.7 568.07,-410.23 549,-435 539.24,-447.68 542.67,-456.3 549,-471 584.58,-553.62 625.56,-566.09 712,-591 843.06,-628.77 1003.28,-641.07 1090.3,-645.08"/>
<polygon fill="#3e0d7a" stroke="#3e0d7a" points="789.49,-283.63 799.92,-287.03 794.46,-283.09 799.43,-282.55 799.43,-282.55 799.43,-282.55 794.46,-283.09 798.95,-278.08 789.49,-283.63 789.49,-283.63"/>
<polygon fill="#3e0d7a" stroke="#3e0d7a" points="1090.55,-645.09 1100.35,-650.02 1095.55,-645.31 1100.55,-645.53 1100.55,-645.53 1100.55,-645.53 1095.55,-645.31 1100.74,-641.03 1090.55,-645.09 1090.55,-645.09"/>
<text text-anchor="middle" x="613" y="-449.3" font-family="Times,serif" font-size="14.00">organized_tournaments</text>
</g>
<!-- Club&#45;&gt;Location -->
<g id="edge88" class="edge">
<title>Club&#45;&gt;Location</title>
<path fill="none" stroke="#cd7531" d="M793.54,-265.96C779.23,-260.07 762.69,-252.24 749,-243 737.97,-235.55 727.14,-225.68 718.24,-216.67"/>
<polygon fill="#cd7531" stroke="#cd7531" points="793.74,-266.03 801.37,-273.9 798.38,-267.88 803.03,-269.72 803.03,-269.72 803.03,-269.72 798.38,-267.88 804.69,-265.53 793.74,-266.03 793.74,-266.03"/>
<polygon fill="#cd7531" stroke="#cd7531" points="718.18,-216.6 714.51,-206.26 714.72,-212.99 711.26,-209.38 711.26,-209.38 711.26,-209.38 714.72,-212.99 708.01,-212.49 718.18,-216.6 718.18,-216.6"/>
<text text-anchor="middle" x="808" y="-231.8" font-family="Times,serif" font-size="14.00">locations</text>
</g>
<!-- Club&#45;&gt;SeasonParticipation -->
<g id="edge87" class="edge">
<title>Club&#45;&gt;SeasonParticipation</title>
<path fill="none" stroke="#4a02b6" d="M855.1,-259.35C860.68,-254.58 866.03,-249.06 870,-243 874.47,-236.19 877.53,-227.95 879.61,-220.15"/>
<polygon fill="#4a02b6" stroke="#4a02b6" points="854.76,-259.62 844.12,-262.25 850.83,-262.71 846.9,-265.79 846.9,-265.79 846.9,-265.79 850.83,-262.71 849.68,-269.33 854.76,-259.62 854.76,-259.62"/>
<polygon fill="#4a02b6" stroke="#4a02b6" points="879.63,-220.05 886.22,-211.28 880.73,-215.17 881.83,-210.29 881.83,-210.29 881.83,-210.29 880.73,-215.17 877.44,-209.3 879.63,-220.05 879.63,-220.05"/>
</g>
<!-- Game&#45;&gt;PaperTrail::Version -->
<g id="edge90" class="edge">
<title>Game&#45;&gt;PaperTrail::Version</title>
<path fill="none" stroke="#4e270d" d="M2673.62,-164.87C2669.14,-154.56 2663.99,-142.74 2659.49,-132.4"/>
<polygon fill="#4e270d" stroke="#4e270d" points="2673.7,-165.04 2673.56,-176 2675.69,-169.62 2677.69,-174.21 2677.69,-174.21 2677.69,-174.21 2675.69,-169.62 2681.82,-172.41 2673.7,-165.04 2673.7,-165.04"/>
<polygon fill="#4e270d" stroke="#4e270d" points="2659.41,-132.22 2659.55,-121.25 2657.42,-127.63 2655.42,-123.05 2655.42,-123.05 2655.42,-123.05 2657.42,-127.63 2651.3,-124.85 2659.41,-132.22 2659.41,-132.22"/>
<text text-anchor="middle" x="2692" y="-144.8" font-family="Times,serif" font-size="14.00">versions</text>
</g>
<!-- ApiToken -->
<g id="node32" class="node">
<title>ApiToken</title>
<ellipse fill="none" stroke="black" cx="1581" cy="-366" rx="46.29" ry="18"/>
<text text-anchor="middle" x="1581" y="-362.3" font-family="Times,serif" font-size="14.00">ApiToken</text>
</g>
<!-- ApiToken&#45;&gt;User -->
<g id="edge91" class="edge">
<title>ApiToken&#45;&gt;User</title>
<path fill="none" stroke="#08ec2e" d="M1576.82,-337.74C1575.03,-330.13 1572.51,-322.03 1569,-315 1566.82,-310.64 1564.01,-306.35 1560.99,-302.35"/>
<polygon fill="#08ec2e" stroke="#08ec2e" points="1576.84,-337.86 1574.42,-348.56 1577.84,-342.76 1578.83,-347.66 1578.83,-347.66 1578.83,-347.66 1577.84,-342.76 1583.24,-346.77 1576.84,-337.86 1576.84,-337.86"/>
<polygon fill="#08ec2e" stroke="#08ec2e" points="1560.98,-302.34 1558.13,-291.75 1557.82,-298.47 1554.65,-294.6 1554.65,-294.6 1554.65,-294.6 1557.82,-298.47 1551.17,-297.45 1560.98,-302.34 1560.98,-302.34"/>
</g>
<!-- TableKind&#45;&gt;Discipline -->
<g id="edge92" class="edge">
<title>TableKind&#45;&gt;Discipline</title>
<path fill="none" stroke="#01654c" d="M1980.92,-342.99C1970.09,-334.23 1957.49,-324.1 1946,-315 1940.58,-310.71 1934.76,-306.15 1929.18,-301.79"/>
<polygon fill="#01654c" stroke="#01654c" points="1981.03,-343.08 1985.97,-352.87 1984.91,-346.23 1988.8,-349.37 1988.8,-349.37 1988.8,-349.37 1984.91,-346.23 1991.63,-345.87 1981.03,-343.08 1981.03,-343.08"/>
<polygon fill="#01654c" stroke="#01654c" points="1929.11,-301.74 1923.98,-292.05 1925.17,-298.67 1921.22,-295.61 1921.22,-295.61 1921.22,-295.61 1925.17,-298.67 1918.46,-299.16 1929.11,-301.74 1929.11,-301.74"/>
</g>
<!-- TournamentPlanGame -->
<g id="node38" class="node">
<title>TournamentPlanGame</title>
<ellipse fill="none" stroke="black" cx="2506" cy="-192" rx="90.98" ry="18"/>
<text text-anchor="middle" x="2506" y="-188.3" font-family="Times,serif" font-size="14.00">TournamentPlanGame</text>
</g>
<!-- TournamentPlan&#45;&gt;TournamentPlanGame -->
<g id="edge93" class="edge">
<title>TournamentPlan&#45;&gt;TournamentPlanGame</title>
<path fill="none" stroke="#dd04a8" d="M2470.65,-251.91C2476.95,-241.42 2484.19,-229.36 2490.47,-218.89"/>
<polygon fill="#dd04a8" stroke="#dd04a8" points="2470.47,-252.22 2461.46,-258.48 2467.89,-256.51 2465.32,-260.8 2465.32,-260.8 2465.32,-260.8 2467.89,-256.51 2469.18,-263.11 2470.47,-252.22 2470.47,-252.22"/>
<polygon fill="#dd04a8" stroke="#dd04a8" points="2490.55,-218.75 2499.55,-212.49 2493.12,-214.46 2495.69,-210.18 2495.69,-210.18 2495.69,-210.18 2493.12,-214.46 2491.84,-207.86 2490.55,-218.75 2490.55,-218.75"/>
</g>
<!-- TournamentPlan&#45;&gt;PaperTrail::Version -->
<g id="edge94" class="edge">
<title>TournamentPlan&#45;&gt;PaperTrail::Version</title>
<path fill="none" stroke="#785161" d="M2414.66,-258.02C2378.87,-237.61 2335.73,-204.67 2360,-174 2385.36,-141.95 2490.45,-123.47 2566.36,-114.08"/>
<polygon fill="#785161" stroke="#785161" points="2414.8,-258.09 2421.38,-266.86 2419.18,-260.51 2423.56,-262.92 2423.56,-262.92 2423.56,-262.92 2419.18,-260.51 2425.73,-258.98 2414.8,-258.09 2414.8,-258.09"/>
<polygon fill="#785161" stroke="#785161" points="2566.47,-114.06 2576.94,-117.33 2571.43,-113.46 2576.4,-112.87 2576.4,-112.87 2576.4,-112.87 2571.43,-113.46 2575.86,-108.4 2566.47,-114.06 2566.47,-114.06"/>
<text text-anchor="middle" x="2383" y="-188.3" font-family="Times,serif" font-size="14.00">versions</text>
</g>
<!-- PlayerClass -->
<g id="node35" class="node">
<title>PlayerClass</title>
<ellipse fill="none" stroke="black" cx="1852" cy="-366" rx="51.99" ry="18"/>
<text text-anchor="middle" x="1852" y="-362.3" font-family="Times,serif" font-size="14.00">PlayerClass</text>
</g>
<!-- PlayerClass&#45;&gt;Discipline -->
<g id="edge95" class="edge">
<title>PlayerClass&#45;&gt;Discipline</title>
<path fill="none" stroke="#f58f7f" d="M1866.87,-339.2C1873.02,-328.54 1880.12,-316.22 1886.25,-305.59"/>
<polygon fill="#f58f7f" stroke="#f58f7f" points="1866.68,-339.54 1857.78,-345.96 1864.18,-343.87 1861.68,-348.21 1861.68,-348.21 1861.68,-348.21 1864.18,-343.87 1865.58,-350.45 1866.68,-339.54 1866.68,-339.54"/>
<polygon fill="#f58f7f" stroke="#f58f7f" points="1886.34,-305.42 1895.24,-299.01 1888.84,-301.09 1891.34,-296.76 1891.34,-296.76 1891.34,-296.76 1888.84,-301.09 1887.44,-294.51 1886.34,-305.42 1886.34,-305.42"/>
</g>
<!-- Version -->
<g id="node36" class="node">
<title>Version</title>
<ellipse fill="none" stroke="black" cx="3371" cy="-648" rx="37.89" ry="18"/>
<text text-anchor="middle" x="3371" y="-644.3" font-family="Times,serif" font-size="14.00">Version</text>
</g>
<!-- PartyGame&#45;&gt;Player -->
<g id="edge96" class="edge">
<title>PartyGame&#45;&gt;Player</title>
<path fill="none" stroke="#f2962a" d="M1541.45,-424.93C1539.26,-416.79 1535.72,-408.34 1530,-402 1526.44,-398.06 1503.47,-388.61 1482.44,-380.52"/>
<polygon fill="#f2962a" stroke="#f2962a" points="1541.49,-425.12 1539.17,-435.84 1542.53,-430.01 1543.57,-434.9 1543.57,-434.9 1543.57,-434.9 1542.53,-430.01 1547.97,-433.97 1541.49,-425.12 1541.49,-425.12"/>
<polygon fill="#f2962a" stroke="#f2962a" points="1482.34,-380.48 1474.59,-372.72 1477.67,-378.7 1472.99,-376.92 1472.99,-376.92 1472.99,-376.92 1477.67,-378.7 1471.39,-381.13 1482.34,-380.48 1482.34,-380.48"/>
<text text-anchor="middle" x="1562.5" y="-405.8" font-family="Times,serif" font-size="14.00">player_a</text>
</g>
<!-- PartyGame&#45;&gt;Player -->
<g id="edge97" class="edge">
<title>PartyGame&#45;&gt;Player</title>
<path fill="none" stroke="#764ed9" d="M1580.16,-431.46C1591.03,-422.55 1598.23,-411.9 1590,-402 1561.97,-368.29 1535.31,-395.5 1493,-384 1489.35,-383.01 1485.59,-381.86 1481.84,-380.64"/>
<polygon fill="#764ed9" stroke="#764ed9" points="1579.83,-431.7 1569.1,-433.98 1575.8,-434.65 1571.76,-437.61 1571.76,-437.61 1571.76,-437.61 1575.8,-434.65 1574.42,-441.24 1579.83,-431.7 1579.83,-431.7"/>
<polygon fill="#764ed9" stroke="#764ed9" points="1481.56,-380.55 1473.57,-373.04 1476.84,-378.92 1472.11,-377.3 1472.11,-377.3 1472.11,-377.3 1476.84,-378.92 1470.64,-381.56 1481.56,-380.55 1481.56,-380.55"/>
<text text-anchor="middle" x="1618" y="-405.8" font-family="Times,serif" font-size="14.00">player_b</text>
</g>
<!-- Discipline&#45;&gt;Discipline -->
<g id="edge98" class="edge">
<title>Discipline&#45;&gt;Discipline</title>
<path fill="none" stroke="#682cd5" d="M1956.8,-282.21C1962.3,-281.56 1965.8,-280.49 1965.8,-279 1965.8,-277.51 1962.3,-276.44 1956.8,-275.79"/>
<polygon fill="#682cd5" stroke="#682cd5" points="1956.69,-282.21 1946.42,-278.38 1951.7,-282.54 1946.71,-282.87 1946.71,-282.87 1946.71,-282.87 1951.7,-282.54 1947.01,-287.36 1956.69,-282.21 1956.69,-282.21"/>
<polygon fill="#682cd5" stroke="#682cd5" points="1956.69,-275.79 1947.01,-270.64 1951.7,-275.46 1946.71,-275.13 1946.71,-275.13 1946.71,-275.13 1951.7,-275.46 1946.42,-279.62 1956.69,-275.79 1956.69,-275.79"/>
<text text-anchor="middle" x="2010.3" y="-275.3" font-family="Times,serif" font-size="14.00">super_discipline</text>
</g>
<!-- Discipline&#45;&gt;Discipline -->
<g id="edge99" class="edge">
<title>Discipline&#45;&gt;Discipline</title>
<path fill="none" stroke="#c16125" d="M1955.06,-286.1C2000.27,-288.27 2054.8,-285.9 2054.8,-279 2054.8,-272.1 2000.27,-269.73 1955.06,-271.9"/>
<polygon fill="#c16125" stroke="#c16125" points="1954.98,-286.09 1945.25,-281.03 1949.98,-285.81 1944.99,-285.52 1944.99,-285.52 1944.99,-285.52 1949.98,-285.81 1944.74,-290.02 1954.98,-286.09 1954.98,-286.09"/>
<polygon fill="#c16125" stroke="#c16125" points="1954.98,-271.91 1944.74,-267.98 1949.98,-272.19 1944.99,-272.48 1944.99,-272.48 1944.99,-272.48 1949.98,-272.19 1945.25,-276.97 1954.98,-271.91 1954.98,-271.91"/>
<text text-anchor="middle" x="2096.8" y="-275.3" font-family="Times,serif" font-size="14.00">sub_disciplines</text>
</g>
<!-- Discipline&#45;&gt;Seeding -->
<g id="edge101" class="edge">
<title>Discipline&#45;&gt;Seeding</title>
<path fill="none" stroke="#fac9b6" d="M1949.45,-266.07C1975.24,-259.56 2007.44,-251.18 2036,-243 2083.02,-229.52 2094.38,-224.8 2141,-210 2144.99,-208.73 2149.15,-207.41 2153.3,-206.08"/>
<polygon fill="#fac9b6" stroke="#fac9b6" points="1949.25,-266.12 1938.45,-264.2 1944.4,-267.34 1939.55,-268.56 1939.55,-268.56 1939.55,-268.56 1944.4,-267.34 1940.64,-272.92 1949.25,-266.12 1949.25,-266.12"/>
<polygon fill="#fac9b6" stroke="#fac9b6" points="2153.38,-206.06 2164.27,-207.29 2158.14,-204.53 2162.9,-203.01 2162.9,-203.01 2162.9,-203.01 2158.14,-204.53 2161.53,-198.72 2153.38,-206.06 2153.38,-206.06"/>
<text text-anchor="middle" x="2124.5" y="-231.8" font-family="Times,serif" font-size="14.00">seeding_plays</text>
</g>
<!-- Discipline&#45;&gt;PlayerRanking -->
<g id="edge100" class="edge">
<title>Discipline&#45;&gt;PlayerRanking</title>
<path fill="none" stroke="#13386d" d="M1846.13,-272.54C1696.14,-257.63 1279.55,-216.22 1114.56,-199.82"/>
<polygon fill="#13386d" stroke="#13386d" points="1846.28,-272.56 1855.79,-278.03 1851.26,-273.06 1856.24,-273.55 1856.24,-273.55 1856.24,-273.55 1851.26,-273.06 1856.68,-269.07 1846.28,-272.56 1846.28,-272.56"/>
<polygon fill="#13386d" stroke="#13386d" points="1114.48,-199.81 1104.98,-194.34 1109.51,-199.31 1104.53,-198.82 1104.53,-198.82 1104.53,-198.82 1109.51,-199.31 1104.09,-203.3 1114.48,-199.81 1114.48,-199.81"/>
</g>
<!-- Seeding&#45;&gt;Discipline -->
<g id="edge102" class="edge">
<title>Seeding&#45;&gt;Discipline</title>
<path fill="none" stroke="#0bbcb0" d="M2154.56,-206.72C2150.02,-207.98 2145.44,-209.11 2141,-210 2095.3,-219.18 1971.72,-203.6 1932,-228 1922.96,-233.55 1916.15,-242.84 1911.25,-251.91"/>
<polygon fill="#0bbcb0" stroke="#0bbcb0" points="2154.73,-206.66 2165.6,-208.12 2159.53,-205.24 2164.32,-203.81 2164.32,-203.81 2164.32,-203.81 2159.53,-205.24 2163.03,-199.5 2154.73,-206.66 2154.73,-206.66"/>
<polygon fill="#0bbcb0" stroke="#0bbcb0" points="1911.15,-252.1 1902.77,-259.17 1908.99,-256.61 1906.82,-261.12 1906.82,-261.12 1906.82,-261.12 1908.99,-256.61 1910.88,-263.07 1911.15,-252.1 1911.15,-252.1"/>
<text text-anchor="middle" x="1982" y="-231.8" font-family="Times,serif" font-size="14.00">playing_discipline</text>
</g>
<!-- ApplicationRecord -->
<g id="node41" class="node">
<title>ApplicationRecord</title>
<ellipse fill="none" stroke="black" cx="3504" cy="-648" rx="77.19" ry="18"/>
<text text-anchor="middle" x="3504" y="-644.3" font-family="Times,serif" font-size="14.00">ApplicationRecord</text>
</g>
<!-- Plan -->
<g id="node44" class="node">
<title>Plan</title>
<ellipse fill="none" stroke="black" cx="3626" cy="-648" rx="27" ry="18"/>
<text text-anchor="middle" x="3626" y="-644.3" font-family="Times,serif" font-size="14.00">Plan</text>
</g>
<!-- User&#45;&gt;AccountInvitation -->
<g id="edge103" class="edge">
<title>User&#45;&gt;AccountInvitation</title>
<path fill="none" stroke="#6e575f" d="M1549.46,-251.4C1552.84,-243.53 1557.06,-235.12 1562,-228 1564.64,-224.19 1567.74,-220.46 1571,-216.93"/>
<polygon fill="#6e575f" stroke="#6e575f" points="1549.35,-251.66 1541.45,-259.27 1547.49,-256.3 1545.63,-260.95 1545.63,-260.95 1545.63,-260.95 1547.49,-256.3 1549.81,-262.62 1549.35,-251.66 1549.35,-251.66"/>
<polygon fill="#6e575f" stroke="#6e575f" points="1571.22,-216.7 1581.44,-212.74 1574.73,-213.14 1578.24,-209.58 1578.24,-209.58 1578.24,-209.58 1574.73,-213.14 1575.03,-206.42 1571.22,-216.7 1571.22,-216.7"/>
</g>
<!-- User&#45;&gt;Account -->
<g id="edge104" class="edge">
<title>User&#45;&gt;Account</title>
<path fill="none" stroke="#f51080" d="M1575.04,-268.96C1626.53,-253.88 1713.34,-220.59 1682,-174 1655.88,-135.17 1603.32,-118.5 1564.11,-111.35"/>
<polygon fill="#f51080" stroke="#f51080" points="1574.87,-269 1564.03,-267.4 1570.06,-270.37 1565.25,-271.73 1565.25,-271.73 1565.25,-271.73 1570.06,-270.37 1566.48,-276.06 1574.87,-269 1574.87,-269"/>
<polygon fill="#f51080" stroke="#f51080" points="1564.06,-111.34 1554.94,-105.26 1559.13,-110.52 1554.2,-109.69 1554.2,-109.69 1554.2,-109.69 1559.13,-110.52 1553.46,-114.13 1564.06,-111.34 1564.06,-111.34"/>
<text text-anchor="middle" x="1734.5" y="-188.3" font-family="Times,serif" font-size="14.00">owned_accounts</text>
</g>
<!-- User&#45;&gt;Account -->
<g id="edge105" class="edge">
<title>User&#45;&gt;Account</title>
<path fill="none" stroke="#366cc0" d="M1575.32,-268.75C1642.16,-251.16 1780.79,-214.26 1784,-210 1793.63,-197.22 1793.6,-186.8 1784,-174 1757.84,-139.1 1634.08,-119.55 1563.89,-111.1"/>
<polygon fill="#366cc0" stroke="#366cc0" points="1574.91,-268.85 1564.1,-267.04 1570.08,-270.13 1565.24,-271.4 1565.24,-271.4 1565.24,-271.4 1570.08,-270.13 1566.38,-275.75 1574.91,-268.85 1574.91,-268.85"/>
<polygon fill="#366cc0" stroke="#366cc0" points="1563.88,-111.09 1554.47,-105.46 1558.91,-110.51 1553.95,-109.93 1553.95,-109.93 1553.95,-109.93 1558.91,-110.51 1553.42,-114.4 1563.88,-111.09 1563.88,-111.09"/>
<text text-anchor="middle" x="1839.5" y="-188.3" font-family="Times,serif" font-size="14.00">personal_account</text>
</g>
<!-- User&#45;&gt;Notification -->
<g id="edge109" class="edge">
<title>User&#45;&gt;Notification</title>
<path fill="none" stroke="#03ddfc" d="M1576.48,-272.49C1622.52,-265.3 1698.99,-252.52 1726,-243 1739.31,-238.31 1740.49,-232.11 1754,-228 1831.34,-204.46 1855.38,-223.98 1935,-210 1940.68,-209 1946.59,-207.78 1952.44,-206.45"/>
<polygon fill="#03ddfc" stroke="#03ddfc" points="1576.47,-272.49 1565.9,-269.58 1571.53,-273.26 1566.58,-274.02 1566.58,-274.02 1566.58,-274.02 1571.53,-273.26 1567.27,-278.47 1576.47,-272.49 1576.47,-272.49"/>
<polygon fill="#03ddfc" stroke="#03ddfc" points="1952.45,-206.45 1963.22,-208.52 1957.31,-205.3 1962.18,-204.14 1962.18,-204.14 1962.18,-204.14 1957.31,-205.3 1961.14,-199.76 1952.45,-206.45 1952.45,-206.45"/>
</g>
<!-- User&#45;&gt;PaperTrail::Version -->
<g id="edge110" class="edge">
<title>User&#45;&gt;PaperTrail::Version</title>
<path fill="none" stroke="#d7b96d" d="M1576.72,-272.58C1632.75,-264.2 1734.82,-248.51 1751,-243 1764.36,-238.45 1765.42,-231.87 1779,-228 1840.03,-210.62 2006.17,-236.12 2064,-210 2084.62,-200.69 2079.76,-184.11 2100,-174 2193.58,-127.28 2229.24,-154.11 2333,-141 2412.54,-130.95 2503.58,-121 2567.26,-114.3"/>
<polygon fill="#d7b96d" stroke="#d7b96d" points="1576.39,-272.63 1565.84,-269.65 1571.45,-273.36 1566.5,-274.1 1566.5,-274.1 1566.5,-274.1 1571.45,-273.36 1567.16,-278.55 1576.39,-272.63 1576.39,-272.63"/>
<polygon fill="#d7b96d" stroke="#d7b96d" points="2567.3,-114.29 2577.71,-117.72 2572.27,-113.77 2577.24,-113.25 2577.24,-113.25 2577.24,-113.25 2572.27,-113.77 2576.77,-108.77 2567.3,-114.29 2567.3,-114.29"/>
<text text-anchor="middle" x="2123" y="-188.3" font-family="Times,serif" font-size="14.00">versions</text>
</g>
<!-- User&#45;&gt;ActiveStorage::Attachment -->
<g id="edge106" class="edge">
<title>User&#45;&gt;ActiveStorage::Attachment</title>
<path fill="none" stroke="#21f93d" d="M1502.4,-278.65C1443.73,-278.58 1327.53,-274.03 1235,-243 1177.76,-223.81 1171.85,-201.28 1118,-174 1099.88,-164.82 1091.07,-169.61 1076,-156 1042.09,-125.37 1019.95,-75.94 1008.74,-45.57"/>
<polygon fill="#21f93d" stroke="#21f93d" points="1502.67,-278.65 1512.68,-283.12 1507.67,-278.63 1512.67,-278.62 1512.67,-278.62 1512.67,-278.62 1507.67,-278.63 1512.65,-274.12 1502.67,-278.65 1502.67,-278.65"/>
<polygon fill="#21f93d" stroke="#21f93d" points="1008.71,-45.48 1009.6,-34.55 1007.04,-40.77 1005.36,-36.06 1005.36,-36.06 1005.36,-36.06 1007.04,-40.77 1001.12,-37.57 1008.71,-45.48 1008.71,-45.48"/>
<text text-anchor="middle" x="1126" y="-144.8" font-family="Times,serif" font-size="14.00">avatar_attachment</text>
</g>
<!-- User&#45;&gt;ActiveStorage::Blob -->
<g id="edge107" class="edge">
<title>User&#45;&gt;ActiveStorage::Blob</title>
<path fill="none" stroke="#f3f6dd" d="M1502.63,-276.38C1437.36,-273.03 1305.67,-263.86 1265,-243 1217.99,-218.89 1203.34,-205.16 1184,-156 1169.53,-119.22 1183.38,-73.46 1195.25,-45.24"/>
<polygon fill="#f3f6dd" stroke="#f3f6dd" points="1502.89,-276.39 1512.66,-281.38 1507.89,-276.64 1512.88,-276.88 1512.88,-276.88 1512.88,-276.88 1507.89,-276.64 1513.1,-272.39 1502.89,-276.39 1502.89,-276.39"/>
<polygon fill="#f3f6dd" stroke="#f3f6dd" points="1195.27,-45.18 1203.43,-37.85 1197.29,-40.61 1199.31,-36.04 1199.31,-36.04 1199.31,-36.04 1197.29,-40.61 1195.2,-34.22 1195.27,-45.18 1195.27,-45.18"/>
<text text-anchor="middle" x="1216" y="-144.8" font-family="Times,serif" font-size="14.00">avatar_blob</text>
</g>
<!-- ConnectedAccount -->
<g id="node55" class="node">
<title>ConnectedAccount</title>
<ellipse fill="none" stroke="black" cx="1357" cy="-192" rx="77.99" ry="18"/>
<text text-anchor="middle" x="1357" y="-188.3" font-family="Times,serif" font-size="14.00">ConnectedAccount</text>
</g>
<!-- User&#45;&gt;ConnectedAccount -->
<g id="edge108" class="edge">
<title>User&#45;&gt;ConnectedAccount</title>
<path fill="none" stroke="#fa020b" d="M1507.66,-264.93C1492.22,-258.55 1473.55,-250.62 1457,-243 1436.79,-233.7 1414.63,-222.7 1396.31,-213.39"/>
<polygon fill="#fa020b" stroke="#fa020b" points="1508.03,-265.08 1515.57,-273.05 1512.66,-266.98 1517.28,-268.88 1517.28,-268.88 1517.28,-268.88 1512.66,-266.98 1518.99,-264.72 1508.03,-265.08 1508.03,-265.08"/>
<polygon fill="#fa020b" stroke="#fa020b" points="1396.29,-213.38 1389.44,-204.83 1391.84,-211.11 1387.39,-208.83 1387.39,-208.83 1387.39,-208.83 1391.84,-211.11 1385.34,-212.84 1396.29,-213.38 1396.29,-213.38"/>
</g>
</g>
</svg>
